<svg version="1.1" xmlns="http://www.w3.org/2000/svg" xmlns:xlink="http://www.w3.org/1999/xlink" width="1190.55px" height="841.89px" viewBox="0 0 1190.55 841.89" enable-background="new 0 0 1190.55 841.89" xml:space="preserve">
<path fill="#B5B5B5" d="M311.875,269.981c-3.909,1.392-7.774,2.892-11.606,4.465c1.234-0.807,2.464-1.621,3.702-2.423
	c2.404-1.56,1.744-4.476-0.103-5.581c1.125-0.907,2.25-1.815,3.364-2.736c2.483-2.053,0.185-5.505-2.474-5.486
	c1.946-2.607-0.736-6.778-4.071-4.829c-1.152,0.673-2.294,1.362-3.437,2.049c-0.551-0.004-1.147,0.152-1.769,0.553
	c-0.651,0.42-1.303,0.838-1.954,1.256c-0.862-0.606-2.017-0.745-3.251,0.045c-0.062,0.039-0.124,0.078-0.185,0.117
	c0.074-0.072,0.149-0.141,0.223-0.213c2.68-2.635-0.733-6.885-3.942-5.109c-1.583,0.876-3.132,1.8-4.666,2.744
	c-1.122-0.586-2.563-0.629-3.801,0.367c-0.269,0.217-0.529,0.443-0.797,0.661c-0.989-0.291-2.114-0.167-3.107,0.641
	c-14.093,11.478-28.687,22.344-41.645,35.138c-1.92,1.896-0.466,5.055,1.663,5.6c-0.063,0.343-0.051,0.683,0.01,1.013
	c-0.996,0.826-1.99,1.654-2.974,2.498c-0.988,0.846-1.145,2.005-0.818,3.055c-0.808,0.549-1.621,1.09-2.428,1.641
	c-2.274,1.553-1.674,4.481,0.046,5.635c-0.449,0.291-0.898,0.582-1.347,0.873c-3.5,2.273-0.277,7.875,3.284,5.619
	c1.454-0.922,2.904-1.849,4.354-2.779c0.903,0.71,2.151,0.947,3.454,0.176c2.878-1.703,5.738-3.436,8.583-5.189
	c7.954-4.764,15.99-9.426,24.156-13.838c-3.287,2.179-6.523,4.433-9.64,6.854c-2.301,1.788-6.192,4.695-5.871,8.063
	c0.395,4.139,6.906,4.178,6.507,0c-0.071-0.745,6.178-5.117,7.653-6.163c5.246-3.715,10.73-7.104,16.194-10.487
	c9.723-6.02,19.979-11.496,29.2-18.282C317.132,273.903,315.617,268.647,311.875,269.981z"/>
<path fill="#B5B5B5" d="M313.701,240.376c-12.505,8.159-26.836,14.058-37.098,25.236c-1.718,1.871-0.729,5.906,2.3,5.554
	c2.12-0.246,4.103-0.958,6.192-1.249c-4.818,5.778-9.23,11.867-12.906,18.477c-1.88,3.379,2.343,6.247,5.109,3.942
	c5.538-4.61,10.091-10.065,14.335-15.791c-5.228,10.104-11.093,19.91-17.821,28.93c-1.378-0.653-3.167-0.501-4.227,1.139
	c-2.312,3.578-4.114,7.177-5.533,11.188c-1.087,3.071,3.298,5.529,5.438,3.165c17.455-19.278,29.784-43.446,39.879-67.319
	c2.769-2.728,5.541-5.439,8.272-8.162C320.223,242.914,316.847,238.323,313.701,240.376z M287.785,264.155
	c2.2-1.745,4.504-3.355,6.875-4.881c-2.097,2.194-4.161,4.416-6.167,6.683C288.442,265.275,288.211,264.633,287.785,264.155z"/>
<path fill="#B5B5B5" d="M308.185,250.994c-1.428,22.578-9.838,50.166-28.647,64.669c-0.392-2.609-4.354-4.159-6.046-1.241
	c-1.644,2.834-3.641,5.303-4.232,8.585c-0.522,2.898,2.103,4.941,4.779,3.675c27.142-12.855,38.883-47.708,40.653-75.688
	C314.957,246.802,308.449,246.828,308.185,250.994z"/>
<path fill="#B5B5B5" d="M311.973,238.417c-0.421-1.64-2.344-2.84-4.002-2.272c-1.233,0.421-2.467,0.862-3.609,1.494
	c-1.434,0.794-1.853,2.466-1.382,3.862v5.59c0,2.284,1.927,3.314,3.683,3.112c-0.676,14.62-9.441,29.995-17.088,41.408
	c-4.232,6.315-8.723,12.477-13.522,18.374c-1.878,2.309-3.846,4.545-5.936,6.664c-0.682,0.691-1.403,1.375-2.171,1.976
	c-2.029-1.521-5.895,0.238-5.192,3.509c1.351,6.293,7.644,3.004,10.676,0.342c6.797-5.967,12.182-13.997,17.412-21.303
	C303.071,284.084,317.545,260.089,311.973,238.417z"/>
<path fill="#B5B5B5" d="M302.669,263.802c-2.953-2.074-5.748,1.78-4.339,4.428c-0.008,0.076-0.013,0.145-0.034,0.252
	c-0.165,0.875-0.483,1.724-0.779,2.56c-0.881,2.486-2.136,4.854-3.341,7.194c-3.045,5.916-6.517,11.619-10.043,17.257
	c-5.12,8.184-10.401,16.915-16.726,24.422c-1.722-1.044-4.209-0.717-4.655,1.792c-0.359,2.02-1.556,3.39-1,5.478
	c0.267,0.997,1.196,2.104,2.272,2.272c5.493,0.858,9.179-6.554,12.047-10.433c5.407-7.314,10.399-14.946,15.19-22.673
	c4.242-6.841,8.437-13.852,11.598-21.271C304.339,271.611,306.524,266.508,302.669,263.802z"/>
<path fill="#B5B5B5" d="M284.109,226.918c-1.773,0-3.253,1.48-3.253,3.253v1.301c0,1.773,1.48,3.254,3.253,3.254
	s3.253-1.48,3.253-3.254v-1.301C287.362,228.398,285.882,226.918,284.109,226.918z"/>
<path fill="#B5B5B5" d="M297.553,208.556c-0.045-3.113-0.817-5.948-2.943-7.681c-6.63-5.406-14.615,5.452-17.501,15.919
	c-5.52,6.374-8.351,15.246-5.247,23.353c0.609,1.592,2.196,2.862,4.002,2.272c2.05-0.669,3.918-1.586,5.638-2.684
	c0.673,1.067,1.892,1.773,3.471,1.383c6.297-1.56,12.837-9.764,16.006-14.936C304.19,220.944,303.769,211.454,297.553,208.556z
	 M277.549,230.327c0.715,1.012,1.694,1.744,2.975,2.101c-1.01,0.868-2.081,1.634-3.21,2.276
	C277.198,233.276,277.288,231.801,277.549,230.327z M286.124,225.634c-0.474-0.095-0.999-0.084-1.579,0.099
	c-1.769,0.557-1.927,0.813-1.995-1.143c-0.056-1.606,0.381-3.214,0.763-4.758c0.086-0.351,0.202-0.694,0.301-1.043
	c1.93-1.918,4.202-3.393,6.684-4.156C289.591,218.393,288.152,222.223,286.124,225.634z M290.581,206.501
	c0.101,0.438,0.148,0.888,0.176,1.338c-0.703,0.129-1.4,0.306-2.086,0.538C289.256,207.638,289.909,206.955,290.581,206.501z
	 M293.992,225c-0.374,0.542-0.864,1.181-1.428,1.866c0.803-1.576,1.521-3.204,2.16-4.86c0.509-1.32,1.099-3.045,1.609-4.955
	C296.546,219.733,295.038,223.486,293.992,225z"/>
<path fill="#B5B5B5" d="M291.53,231.402c2.108-5.863,4.078-11.797,5.271-17.868c0.566-2.279,0.973-4.566,0.973-6.788
	c0-4.255-6.153-4.118-6.507,0c-0.169,1.967-0.462,3.924-0.834,5.874c-0.884,3.584-2.279,7.22-3.207,10.447
	c-0.818,2.844-1.669,5.68-2.522,8.515c-1.574,4.228-3.203,8.411-4.621,12.545c-3.102,9.047-7.241,20.35-5.28,30.258
	c-0.229,1.729-0.394,3.471-0.454,5.24c-0.144,4.22,6.239,4.151,6.507,0c0-0.011,0.002-0.023,0.003-0.035
	c1.099-0.639,1.77-1.848,1.182-3.433c-0.259-0.698-0.468-1.411-0.644-2.132c0.471-3.072,1.185-6.091,1.945-9.152
	c0.203-0.815,0.104-1.531-0.176-2.13c1.473-7.397,3.443-14.697,5.573-21.973C289.654,237.643,290.593,234.523,291.53,231.402z"/>
<path fill="#B5B5B5" d="M288.878,212.719c-2.859-0.473-4.981,0.79-6.628,2.7c-0.032-0.288-0.055-0.577-0.093-0.864
	c-0.264-1.975-2.214-3.71-4.067-3.241c-0.681-2.948-4.898-3.644-6.228-0.227c-0.821,2.108-1.666,4.212-2.516,6.317
	c-1.479-1.262-4.033-1.36-4.964,0.714c-2.946,6.56-5.659,13.263-7.874,20.106c-4.774,9.307-8.131,19.22-9.489,29.688
	c-0.302,2.328,2.481,3.697,4.453,3.077c0.207,0.294,0.459,0.548,0.749,0.758c-0.812,6.215-1.247,12.373-1.297,18.288
	c-0.032,3.7,5.407,4.397,6.391,0.865c0.917-3.288,1.842-6.577,2.783-9.863c-1.039,6.803-1.591,13.689-1.366,20.71
	c0.124,3.838,5.105,4.214,6.391,0.865c5.381-14.022,6.948-30.04,10.14-44.655c1.879-8.609,3.884-17.209,6.456-25.641
	c0.968-3.173,2.043-6.335,3.458-9.34c0.502-1.069,1.095-2.089,1.753-3.07c0.661-0.985,1.443-0.712,0.22-0.915
	C291.251,219.672,293.01,213.402,288.878,212.719z"/>
<path fill="#B5B5B5" d="M325.243,252.398c0.076-0.509,0.133-1.023,0.203-1.535c0.275-0.971,0.574-1.936,0.843-2.909
	c0.267-0.967,0.12-1.789-0.265-2.437c0.205-2.495,0.352-5.003,0.381-7.538c0.015-1.291-0.675-2.217-1.606-2.729
	c-0.314-0.667-0.852-1.131-1.48-1.409c-0.512-0.884-1.355-1.428-2.267-1.583c-0.538-2.336-3.476-4.01-5.406-1.786
	c-0.381,0.44-0.753,0.89-1.129,1.336c-0.222,0.201-0.416,0.429-0.579,0.686c-0.243,0.292-0.482,0.586-0.723,0.881
	c-0.06-0.22-0.137-0.429-0.237-0.627c0.495-2.431,0.869-4.817,1.14-7.058c1.07-8.864-2.92-21.17-13.671-19.859
	c-0.869-2.095-1.902-4.095-3.117-5.934c-0.749-1.132-1.834-1.584-2.881-1.538c-0.016-2.346-0.239-4.641-0.696-6.795
	c-0.443-2.092-3.04-2.937-4.779-1.944c-0.118,0.067-0.237,0.144-0.355,0.214c-1.236-0.861-3.044-0.928-4.207,0.294
	c-0.735,0.771-1.429,1.568-2.104,2.376c-1.394-1.011-3.704-0.703-4.912,0.885c-0.008,0.011-0.016,0.022-0.024,0.033
	c-0.264,0.156-0.523,0.35-0.768,0.61c-6.822,7.261-9.867,15.774-8.762,25.726c0.259,2.338,2.22,3.723,4.393,2.989
	c-0.125,0.45-0.245,0.901-0.372,1.352c-0.655,2.321,0.884,3.751,2.645,3.917c-2.316,7.876-3.896,15.924-4.063,24.276
	c-0.021,1.013,0.489,1.859,1.224,2.44c-0.627,5.986-0.293,11.995,1.496,17.946c0.764,2.542,4.633,3.405,5.946,0.777
	c0.817-1.635,1.637-3.275,2.455-4.918c0.055,2.825,0.236,5.653,0.592,8.482c0.423,3.357,5.533,4.761,6.391,0.865
	c0.089-0.403,0.184-0.804,0.275-1.207c0.446-0.355,0.811-0.819,1.027-1.396c0.075-0.201,0.142-0.404,0.216-0.605
	c-0.046,0.78-0.084,1.562-0.1,2.343c-0.061,2.98,3.083,3.849,5.061,2.55c1.463,0.993,3.893,0.781,4.906-0.908
	c0.175-0.292,0.353-0.586,0.529-0.878c0.355,1.632,1.948,2.489,3.499,2.3c-0.176,0.462-0.331,0.936-0.468,1.417
	c-3.71,7.167-6.194,14.835-5.719,22.849c0.198,3.332,4.199,4.309,6.063,1.642c2.828-4.046,5.296-8.205,7.349-12.523
	c0.325-0.333,0.599-0.749,0.787-1.268c0.318-0.878,0.62-1.762,0.936-2.642c0.606-1.493,1.161-3.007,1.664-4.543
	c0.115-0.162,0.234-0.322,0.348-0.485c0.223-0.191,0.437-0.405,0.629-0.664c2.175-2.912,3.854-6.035,5.114-9.307
	c2.891-6.199,4.843-12.839,5.742-19.665C326.541,253.862,326.026,252.982,325.243,252.398z"/>
<path fill="#B5B5B5" d="M341.371,220.412c-0.235-0.024-0.466-0.069-0.699-0.101c0.031-0.177,0.048-0.36,0.048-0.55v-1.301
	c0-1.242-0.657-2.196-1.609-2.745c-0.046-0.066-0.09-0.13-0.137-0.198c-0.297-0.434-0.659-0.792-1.066-1.063
	c-2.132-2.903-4.691-5.381-7.635-7.415c-3.826-5.566-8.665-9.987-15.367-12.54c-0.944-0.359-1.739-0.262-2.366,0.101
	c-0.261-0.083-0.525-0.12-0.791-0.133c-3.314-4.494-8.015-6.952-13.925-4.795c-5.437,1.984-6.664,6.098-5.617,10.828
	c-1.075-0.329-2.174-0.613-3.329-0.795c-2.054-0.324-4.118,0.843-4.118,3.137c0,4.443,3.155,6.319,6.817,8.015
	c1.455,0.674,2.834,0.254,3.771-0.613c2.26,6.885,6.423,13.231,10.679,18.966c1.839,2.479,4.929,1.717,5.771-0.617
	c0.54,0.579,1.294,0.956,2.244,0.927c4.585-0.139,9.17-0.861,13.281-2.603h14.049C345.651,226.918,345.454,220.836,341.371,220.412z
	"/>
<path fill="#B5B5B5" d="M345.615,215.65c-8.269-6.337-23.471-21.311-38.074-28.517c-0.016-0.015-0.03-0.032-0.046-0.047
	c-0.341-0.717-0.829-1.425-1.565-2.161c-0.791-0.792-2.064-1.183-3.154-0.839c-0.125-0.058-0.249-0.119-0.373-0.176
	c-8.186-6.5-17.464-1.616-23.22,6.616c-0.016,0.021-0.031,0.044-0.046,0.065c-0.156,0.224-0.31,0.451-0.461,0.679
	c-0.76,1.134-1.478,2.401-2.15,3.809c-0.103,0.215-0.207,0.428-0.305,0.645c-0.042,0.092-0.086,0.176-0.127,0.27
	c0.003,0.001,0.005,0.002,0.008,0.003c-0.113,0.258-0.229,0.514-0.336,0.773c-1.398,3.405,4.456,5.861,5.947,2.507
	c3.013-6.78,7.527-9.397,12.796-9.361c0.284,0.619,0.613,1.189,1.052,1.625c1.318,1.308,3.978,1.362,6.144,1.427
	c-0.014,0.236-0.027,0.479-0.027,0.763c0,4.001,5.905,4.177,6.453,0.546c13.285,7.313,27.376,21.759,34.2,26.989
	C345.662,223.822,348.896,218.165,345.615,215.65z"/>
<path fill="#B5B5B5" d="M566.647,249.65c0.786-6.373,0.923-12.638-0.902-19.042c-0.334-1.174-1.161-1.871-2.111-2.155
	c-0.161-0.582-0.325-1.165-0.491-1.75c-0.329-1.157-1.13-1.852-2.055-2.145c1.124-1.246,1.021-2.727,0.301-3.835
	c0.161-0.481,0.313-0.952,0.452-1.4c0.771-2.469-1.664-4.497-3.903-4.005c-0.152-0.577-0.34-1.13-0.563-1.648
	c-1.355-3.152-6.015-2.832-8.669-2.439c-1.977,0.293-3.866,0.987-5.501,1.971c-4.71-0.696-10.014,1.09-13.595,4.347
	c-3.388-0.611-5.997,0.23-9.623,2.83c-6.255-0.276-12.37,2.106-17.195,6.435c-1.927,0.958-3.799,2.012-5.594,3.151
	c-2.238,1.419-2.116,5.332,0.777,5.947c3.228,0.687,6.477,0.92,9.68,0.751c0.477,1.147,1.555,1.977,2.95,1.95
	c0.528,0.719,1.388,1.231,2.551,1.318c0.888,0.067,1.78,0.096,2.675,0.101c0.534,0.743,1.395,1.241,2.53,1.201
	c1.161-0.042,2.307-0.153,3.444-0.295c-0.663,2.419,1.298,4.535,3.928,4.083c0.661-0.114,1.31-0.254,1.952-0.409
	c-0.14,0.279-0.287,0.552-0.421,0.836c-0.347,0.738-0.426,1.487-0.305,2.17c-0.254,1.246,0.259,2.52,1.153,3.311
	c-0.12,3.048,4.423,4.688,6.071,1.707c0.843-1.524,1.63-3.149,2.326-4.838c0.563-0.425,1.111-0.865,1.663-1.303
	c0.4,0.441,0.907,0.775,1.495,0.896c1.25,0.257,2.183-0.081,3.03-0.687c-0.148,2.287-0.239,4.584-0.262,6.893
	c-0.017,1.678,1.272,2.774,2.698,3.097c-0.033,0.269-0.06,0.539-0.096,0.808c-0.228,1.732,0.816,2.729,2.135,3.013
	c-0.315,2.038-0.607,4.071-0.833,6.096c-0.178,1.594,0.612,2.531,1.7,2.898c-0.095,0.481-0.192,0.963-0.283,1.443
	c-0.633,3.366,2.943,5.002,5.089,3.385c0,0.027,0.001,0.055,0.001,0.083c0.021,3.574,5.726,4.563,6.391,0.865
	c0.814-2.775,1.572-5.579,2.221-8.395c0.718-0.343,1.337-0.996,1.684-2.016c0.865-2.543,1.471-5.111,1.901-7.695
	c0.311-0.36,0.561-0.819,0.701-1.415C566.23,253.699,566.514,251.666,566.647,249.65z"/>
<path fill="#B5B5B5" d="M567.047,231.037c1.232-4.622,1.232-8.82,0-13.442c-0.826-3.096-4.426-2.873-5.834-0.722
	c-1.794-0.721-4.087,0.091-4.413,2.334c-1.202,0.131-2.281,0.86-2.534,2.292c-0.2,1.129-0.359,2.255-0.5,3.379
	c-0.713,0.63-1.338,1.427-1.775,2.351c-0.855,1.807-0.007,3.498,1.3,4.361c-0.078,4.145,0.237,8.286,0.976,12.461
	c0.155,0.881,0.627,1.493,1.242,1.872c-0.06,2.999-0.057,5.998-0.058,8.976c-0.002,3.645,5.506,4.47,6.391,0.865
	c0.65-2.648,1.27-5.358,1.765-8.089c1.524,0.14,3.146-0.645,3.441-2.322c0.873-4.955,1.141-9.68-0.04-14.202
	C567.018,231.11,567.036,231.078,567.047,231.037z"/>
<path fill="#B5B5B5" d="M559.354,280.926c-0.744-5.941-2.184-12.032-4.665-17.531c0.571-0.718,0.851-1.711,0.645-2.855
	c-2.261-12.57-16.31-24.085-29.165-23.211c-0.368,0.025-0.702,0.105-1.015,0.213c-3.064-1.719-6.331-3.097-9.833-4.001
	c-2.231-0.576-4.894,1.587-4.002,4.002c0.324,0.877,0.689,1.755,1.075,2.632c-2.646-0.857-5.343-1.133-7.389,0.2
	c-3.5,2.281-0.243,7.917,3.284,5.619c1.436-0.935,7.592,2.795,10.064,4.267c3.944,5.117,8.966,9.401,14.758,11.678
	c1.922,0.755,3.903-1.01,4.138-2.884c0.832,0.527,1.68,1.04,2.528,1.55c0.087,0.369,0.238,0.75,0.499,1.14
	c1.244,1.859,2.52,3.669,3.841,5.441c0.368,0.563,0.731,1.128,1.091,1.697c-2.231,1.282-1.617,5.786,1.782,6.186
	c0.809,0.095,1.548,0.33,2.282,0.577c1.337,2.305,2.66,4.621,4.019,6.921C554.815,285.149,559.775,284.291,559.354,280.926z"/>
<path fill="#B5B5B5" d="M522.472,285.792c-0.348-0.6-0.665-1.212-0.975-1.828c-0.229-8.569-0.901-17.044-2.748-25.354
	c1.087-1.405,2.155-2.756,3.213-4.013c2.344-2.784-0.288-6.035-3.142-5.323c-0.148-3.679-0.54-7.316-1.227-10.856
	c-0.519-2.669-4.781-3.29-5.946-0.777c-0.013,0.027-0.022,0.055-0.034,0.082c-0.273,0.145-0.532,0.325-0.759,0.562
	c-0.886,0.927-1.732,1.892-2.551,2.881c-1.697-0.142-3.307,1.411-3.507,3.253c-9.068,8.002-14.296,19.768-14.697,31.742
	c-0.552,0.099-1.107,0.178-1.671,0.212c-4.168,0.254-4.192,6.762,0,6.507c0.447-0.027,0.888-0.071,1.324-0.125
	c-0.699,1.665-1.331,3.365-1.858,5.117c-0.553,1.835,1.027,4.394,3.137,4.118c0.481-0.063,0.949-0.156,1.417-0.251
	c0.301,0.854,0.62,1.705,0.979,2.543c0.8,1.865,3.562,2.017,4.944,0.79c0.388,1.249,0.8,2.464,1.235,3.639
	c0.961,2.595,4.387,3.314,5.947,0.777c1.441-2.342,2.773-4.795,4.005-7.326c0.152,0.888,0.306,1.775,0.459,2.644
	c0.471,2.665,4.283,3.04,5.747,1.166c1.562,2.537,5.851,0.846,5.85-2.03c-0.001-1.345-0.007-2.688-0.018-4.031
	C522.78,289.021,523.431,287.448,522.472,285.792z M506.536,257.106c0.081,0.575,0.162,1.15,0.243,1.726
	c-0.04,0.146-0.075,0.295-0.116,0.442c-0.869,0.84-1.725,1.692-2.564,2.561c0.269-0.774,0.563-1.539,0.865-2.3
	C505.459,258.698,505.986,257.89,506.536,257.106z"/>
<path fill="#B5B5B5" d="M523.136,226.168c-9.344,2.268-17.873,7.119-26.032,12.064c-7.212,4.371-13.949,9.385-18.858,16.326
	c-1.606,2.271,0.893,5.264,3.3,4.903c-0.014,0.03-0.033,0.057-0.046,0.086c-1.795,3.767,3.813,7.071,5.618,3.284
	c3.048-6.395,9.006-10.351,14.617-14.343c6.823-4.855,14.196-8.723,21.306-13.121c1.081-0.668,1.527-1.743,1.508-2.807
	c0.104-0.042,0.213-0.076,0.317-0.119C528.693,230.937,527.3,225.157,523.136,226.168z"/>
<path fill="#B5B5B5" d="M564.432,222.214c-0.318-3.554-2.593-6.405-5.759-7.604c-2.28-2.879-7.402-2.594-10.813-2.223
	c-1.394,0.152-3.303,0.587-5.011,1.356c-4.63-0.803-9.384,0.749-13.982,1.566c-2.717,0.482-5.624,1.144-8.233,2.322
	c-0.716,0.209-1.428,0.407-2.137,0.58c-4.447,1.087-9.13,2.201-12.805,4.843c-0.257,0.078-0.513,0.154-0.769,0.232
	c-4.063,1.242-8.308,2.633-12.264,4.526c-4.671,1.461-9.319,3.38-12.604,7.001c-1.052,1.16-1.134,2.51-0.618,3.583
	c-4.532,2.854-8.46,6.628-6.096,10.664c1.499,2.56,4.409,2.208,6.779,1.349c0.401,2.463,2.279,4.092,5.272,4.273
	c3.669,0.222,4.109-4.732,1.37-6.144c0.084-0.366,0.196-0.718,0.328-1.059c3.414-1.494,6.807-3.039,10.2-4.571
	c6.621-2.989,13.269-5.922,19.885-8.922c4.016-1.82,9.652-3.201,11.586-7.594c0.155-0.35,0.244-0.695,0.301-1.035
	c2.832-0.705,5.6-1.577,8.076-3.22c0.679-0.45,1.112-1.166,1.32-1.948c0.38,1.467,1.974,2.733,3.654,2.694
	c1.396,0.504,3.074,0.605,4.753,0.454c1.1,0.839,2.612,1.292,4.159,1.108c1.879-0.223,4.65-1.262,6.567-2.881
	c1.194,2.191-1.239,6.892-2.538,8.756c-2.126,3.05-3.608,5.841-3.725,9.613c-0.129,4.198,6.378,4.186,6.507,0
	C558.041,233.297,565.092,229.605,564.432,222.214z"/>
<path fill="#B5B5B5" d="M560.309,252.816c-4.422,4.693-5.512,11.305-6.62,17.431c-1.474,8.149-3.905,15.75-7.024,23.391
	c-1.222,1.704-0.983,4.43,1.633,4.96c0.077,0.016,0.155,0.032,0.233,0.047c1.911,0.387,3.283-0.544,4.002-2.272
	c2.664-6.404,5.132-12.864,6.569-19.669c1.291-6.11,1.298-14.5,5.808-19.287C567.784,254.366,563.19,249.756,560.309,252.816z"/>
<path fill="#B5B5B5" d="M567.032,222.233c-5.606-1.256-11.116,1.829-15.503,5.013c-8.244,5.984-14.361,14.811-19.597,23.433
	c-3.639,5.994-11.104,17.761-5.97,24.732c1.016,1.379,2.842,2.2,4.451,1.167c6.021-3.86,9.134-10.439,12.545-16.485
	c2.354-4.173,5.09-11.065,8.964-14.939c0.518,1.712,0.783,3.546,0.885,5.449c-0.674,2.341-0.874,4.707-0.243,7.001
	c-0.531,5.255-1.631,10.559-1.947,14.954c-0.359,5.003-2.893,22.645,4.376,24.467c1.117,0.28,2.351,0.009,3.165-0.836
	c2.597-2.694,2.568-7.533,3.092-11.032c1.172-7.834,1.004-15.815,3.846-23.318c0.664-1.755-0.225-3.057-1.541-3.621
	c0.579-1.518,0.973-3.1,1.324-4.188c1.739-5.386,4.238-12.12,2.865-17.912c1.017-1.966,1.924-3.984,2.577-6.08
	C571.195,227.235,570.405,222.989,567.032,222.233z M556.092,238.508c-0.959-1.632-2.844-1.919-4.451-1.167
	c-5.294,2.473-8.188,8.793-10.852,13.642c-2.787,5.07-5.745,12.013-9.946,16.716c0.83-5.135,5.567-11.857,7.377-14.837
	c4.017-6.614,8.698-12.777,14.352-18.082c2.051-1.924,4.347-3.472,6.788-4.842c1.128-0.633,5.074-2.872,4.342-0.522
	c-0.345,1.105-0.836,2.195-1.396,3.266c-0.37,0.253-0.708,0.599-0.986,1.054c-0.561,0.916-0.987,1.919-1.34,2.973
	c-0.244,0.41-0.484,0.817-0.713,1.22c-0.574,1.011-1.227,2.087-1.895,3.208C557.015,240.243,556.594,239.364,556.092,238.508z"/>
<path fill="#B5B5B5" d="M556.623,212.491c-2.87-1.829-6.397-0.596-9.353,0.162c-5.016,1.287-8.96,0.392-13.633,3.215
	c-3.586,2.166-0.318,7.793,3.283,5.619c4.199-2.536,8.988-1.766,13.615-2.953c3.62-0.928,11.841,4.71,11.422,9.036
	c-0.405,4.177,6.106,4.137,6.507,0C569.106,220.943,561.536,215.622,556.623,212.491z"/>
<path fill="#B5B5B5" d="M551.85,248.912c-0.375,0.314-0.729,0.646-1.086,0.975c-1.109-1.352-3.211-1.883-4.771-0.325
	c-2.272,2.271-4.339,4.664-6.252,7.146c-0.135-0.31-0.315-0.592-0.529-0.841c1.78-2.804,3.516-5.544,4.95-8.219
	c0.651-1.213,0.441-2.472-0.208-3.417c2.341-4.051,5.25-7.75,9.025-10.891c3.229-2.687-1.4-7.264-4.601-4.601
	c-6.62,5.509-10.789,12.548-13.826,20.232c0.142-0.696,0.282-1.394,0.394-2.101c0.061-0.385,0.049-0.768-0.017-1.14
	c0.077-0.199,0.16-0.395,0.233-0.596c0.117-0.322,0.168-0.622,0.19-0.912c1.633-1.736,0.529-4.333-1.314-5.16
	c-0.557-2.097-3.717-3.524-5.615-1.648v0c-0.611-0.695-1.51-1.145-2.471-1.17c-6.475-0.17-12.903,5.176-17.842,9.515
	c-0.092,0.03-0.179,0.047-0.272,0.079c-8.007,2.745-15.999,9.818-20.476,16.946c-1.525,2.429-1.566,5.273,0.601,7.065
	c-0.628,1.189-1.169,2.42-1.594,3.697c-1.001,3.012,0.138,8.521,4.198,8.428c3.039-0.069,5.755-2.386,8.047-4.128
	c0.278-0.212,0.546-0.437,0.822-0.651c-0.267,1.166-0.474,2.337-0.598,3.515c-0.034,0.317-0.014,0.601,0.027,0.868
	c-1.012,4.796-0.682,9.6,2.932,12.967c5.248,4.889,11.34-2.717,14.468-7.196c-0.977,3.198-1.824,6.424-2.562,9.631
	c-0.944,4.105,4.628,5.538,6.206,1.87c1.367,1.682,4.365,2.161,5.38-0.23c1.029-2.427,2.048-4.862,3.076-7.29
	c-0.384,2.872-0.37,5.774,0.304,8.682c0.552,2.38,3.532,2.996,5.228,1.616c0.211,0.668,0.447,1.331,0.74,1.981
	c0.299,0.665,0.81,1.084,1.397,1.331c0.004,0.02,0.006,0.041,0.009,0.061c0.474,2.666,4.828,3.296,5.947,0.777
	c0.484-1.091,0.925-2.2,1.349-3.313c0.386-0.249,0.742-0.582,1.037-1.025c2.63-3.955,3.697-8.485,4.804-13.05
	c0.378-1.563,0.824-3.096,1.324-4.605c2.047-4.463,4.151-8.891,5.913-13.488c0.643-1.679-0.328-3.063-1.692-3.69
	c0.056-0.217,0.122-0.43,0.174-0.647c0.501-2.095-0.947-3.675-2.624-4.001c1.846-3.198,3.615-6.437,5.01-9.88
	C558.636,248.746,554.051,247.065,551.85,248.912z M496.499,268.683c1.166-0.766,2.21-1.577,3.005-2.17
	c1.297-0.969,2.546-1.995,3.783-3.035c-2.086,2.236-4.391,4.266-6.851,5.849c-0.09,0.059-0.167,0.113-0.245,0.168
	C496.279,269.222,496.383,268.951,496.499,268.683z M505.152,287.73c-0.548-1.697-0.526-3.573-0.149-5.521
	c0.757-1.032,1.475-2.089,2.198-3.144c-0.139,2.168,0.079,4.322,0.865,6.415c0.177,0.47,0.457,0.878,0.785,1.232
	C507.476,288.505,505.868,289.947,505.152,287.73z"/>
<path fill="#B5B5B5" d="M559.883,308.236c0.109-0.198,0.202-0.407,0.263-0.635c0.6-0.787,0.893-1.812,0.612-2.813
	c-1.458-5.208-4.017-11.043-8.87-13.874c-0.775-0.452-1.633-0.522-2.412-0.319c-0.466-0.952-0.946-1.853-1.439-2.688
	c-0.895-3.271-2.294-6.327-4.607-7.622c-4.026-2.252-6.415-0.901-7.727,2.223c-2.484-2.803-5.39-3.682-8.505-0.757
	c-0.188,0.177-0.354,0.371-0.523,0.562c-1.42-1.507-3.036-2.353-4.857-2.274c-1.541-0.449-3.184-0.26-4.627,0.827
	c-1.313-0.812-2.822-1.025-4.548-0.394c-1.003,0.368-1.852,0.886-2.564,1.528c-1.29-1.668-4.411-1.801-5.37,0.32
	c-0.518,1.146-0.921,2.319-1.261,3.505c-0.482-0.929-0.983-1.849-1.483-2.77c-0.151-1.556-0.599-3.055-1.288-4.73
	c-0.325-0.791-0.856-1.334-1.474-1.684c0.935-3.261,1.381-6.813,2.125-9.601c1.934-7.247,6.77-16.412,4.644-24.143
	c-1.367-4.967-5.766-3.565-8.668-1.144c-1.008-1.139-2.669-1.484-4.02-0.676c-0.533-1.583-1.353-3.067-2.674-3.749
	c-2.19-1.13-5.686-0.885-6.856,1.748c-0.181,0.407-0.333,0.827-0.483,1.25c-0.761-1.676-2.767-2.502-4.289-1.88
	c-1.541-1.84-4.902-1.865-5.618,1.053c-0.86,3.509-1.449,7.042-1.887,10.588c-0.003,0.022-0.007,0.044-0.011,0.066
	c-0.814,0.305-1.501,0.983-1.79,2.142c-0.516,2.073-0.92,4.148-1.234,6.229c-0.532,2.855-0.916,5.723-0.736,8.573
	c-0.062,2.856,0.049,5.728,0.336,8.62c0.113,1.146,0.693,1.971,1.457,2.49c0.903,3.863,2.327,7.831,4.265,11.443
	c2.234,7.701,5.319,15.093,11.499,20.251c2.55,2.128,6.051,0.121,5.438-3.166c-0.184-0.986-0.41-1.961-0.662-2.931
	c0.845,0.369,1.777,0.233,2.57-0.229c0.942,1.951,1.885,3.903,2.773,5.883c0.96,2.142,3.612,1.934,5.092,0.611
	c1.559,2.775,3.309,5.462,5.303,8.035c0.005,0.01,0.011,0.02,0.016,0.03c0.001-0.001,0.003-0.002,0.005-0.003
	c0.17,0.22,0.33,0.444,0.504,0.662c1.49,1.864,3.68,1.117,4.776-0.458c2.047,0.402,4.455-1.281,3.979-3.687
	c1.323-0.557,2.368-1.935,2.106-3.792c-0.071-0.504-0.173-1.001-0.254-1.503c0.485,0.944,0.998,1.798,1.54,2.499
	c1.615,2.089,4.742,0.613,5.438-1.435c0.015-0.042,0.025-0.097,0.04-0.141c0.533,0.447,1.104,0.848,1.716,1.19
	c0.648,2.405,1.572,4.648,2.925,6.452c1.586,2.113,5.185,2.206,5.947-0.777c0.693-2.713,0.369-10.334-1.113-17.972
	c-0.105-3.869-1.03-7.798-2.482-11.079c0.079-0.266,0.168-0.525,0.271-0.78c0.142,0.146,0.382,0.41,0.784,0.984
	c0.745,1.066,1.291,2.282,1.853,3.448c0.174,0.361,0.353,0.751,0.534,1.153c0.173,7.59,1.897,15.913,3.1,18.08
	c1.3,2.342,4.387,1.901,5.614-0.089c0.856,0.243,1.796,0.226,2.831-0.151c0.738-0.268,1.341-0.671,1.849-1.16
	c1.021,2.168,2.118,4.06,2.937,5.304c1.979,3.01,5.855,1.344,5.981-1.759c2.061,0.174,4.038-1.505,3.437-4.001
	C560.045,308.872,559.971,308.573,559.883,308.236z M497.875,253.51c0.382-1.38,0.95-2.675,1.599-3.939
	c-0.504,3.944-1.774,7.844-3.061,11.648c0.002-0.015,0.003-0.03,0.005-0.044c0.363-2.068,0.763-4.151,1.105-6.236
	C497.641,254.462,497.745,253.979,497.875,253.51z M543.79,299.692c-0.126-0.5-0.246-1-0.363-1.5
	c-0.391-1.676-0.876-3.963-0.837-6.042C543.267,294.603,543.711,297.282,543.79,299.692z"/>
<path fill="#B5B5B5" d="M625.603,319.1c-0.758,0.519-1.547,0.98-2.36,1.395c-0.595-0.265-1.296-0.307-2.068,0.013
	c-1.64,0.679-2.469,1.09-3.558,2.104c-3.916,1.079-8.066,1.61-11.973,2.29c-0.361-0.346-0.821-0.602-1.393-0.706
	c-6.703-1.233-13.517-0.725-20.302-0.917c-2.995-0.085-6.14-0.098-9.059,0.585c-1.386,0.014-2.763,0.083-4.134,0.278
	c-0.237-0.147-0.486-0.285-0.776-0.381c-0.252-0.082-0.505-0.144-0.76-0.203c-0.08-1.32-0.909-2.535-2.398-2.858
	c0.223-1.581-0.505-3.289-2.264-3.662c-1.934-0.41-3.856-0.431-5.758-0.197c0.081-0.05,0.164-0.096,0.244-0.146
	c0.893-0.559,1.346-1.408,1.464-2.294c0.31-0.172,0.611-0.357,0.923-0.526c3.188-1.726,0.953-7.339-2.507-5.946
	c-1.979,0.797-3.955,1.654-5.918,2.562c0.354-0.339,0.718-0.667,1.057-1.028c2.388-2.54-0.054-5.922-3.165-5.438
	c-1.024,0.16-2.025,0.394-3.015,0.663c-0.001-0.717-0.199-1.414-0.567-1.981c0.271-2.11-1.487-4.465-4.009-3.67
	c-1.375,0.433-2.699,0.952-4.001,1.508c-0.154-0.248-0.321-0.494-0.519-0.739c-2.165-2.675-7.719,0.056-10.104,0.969
	c-6.147,2.351-14.616,6.414-17.541,12.93c-0.555,0.321-1.102,0.656-1.667,0.959c-0.27,1.259-0.336,1.477-0.198,0.653
	c0.448-2.37,1.598-4.689,2.503-6.906c2.454-6.006,8.482-19.144-2.313-20.334c-10.188-1.124-16.65,16.48-10.759,23.34
	c1.562,1.819,3.719,1.092,4.783-0.452c-0.833,2.475-1.202,4.926-0.303,6.951c1.783,4.016,4.973,4.248,8.411,3.036
	c-0.126,0.21-0.268,0.404-0.386,0.621c-0.694,1.268-0.465,2.655,0.293,3.629c-0.812,2.362,0.699,4.406,3.09,4.444
	c-0.576,3.329,1.042,5.574,3.591,6.483c0.432,0.377,0.94,0.646,1.483,0.76c-0.538,2.078,1.397,3.743,3.448,3.74
	c0.461,1.479,1.878,2.626,3.563,2.288c0.366,1.955,2.493,3.641,4.816,2.41c0.412-0.219,0.824-0.437,1.236-0.655
	c0.138,0.233,0.311,0.445,0.497,0.644c-0.918,1.088-1.703,2.271-2.28,3.586c-0.983,2.238,0.686,5.998,3.674,4.779
	c0.478-0.194,0.934-0.418,1.396-0.634c0.562,1.089,1.788,1.933,2.945,1.835c2.489-0.212,4.789-0.874,6.995-1.781
	c0.208,0.577,0.565,1.093,1.02,1.489c-0.396,0.457-0.773,0.938-1.15,1.418l-0.055,0.043c0.004,0.004,0.008,0.007,0.012,0.01
	c-0.171,0.22-0.353,0.425-0.521,0.649c-2.403,3.213,2.475,6.026,5.109,3.942c1.022-0.81,2.046-1.62,3.069-2.431
	c1.09,0.626,2.553,0.667,3.871-0.39c0.293-0.234,0.583-0.471,0.875-0.706c0.97,0.856,2.479,1.185,3.89,0.564
	c1.434-0.631,2.788-1.377,4.108-2.172c0.706,1.399,2.368,2.363,4.048,1.754c0.639,1.314,2.005,2.215,3.646,1.613
	c1.88-0.688,3.66-1.525,5.386-2.454c0.403,1.344,1.58,2.476,3.076,2.354c5.926-0.483,10.377-4.649,14.55-8.538
	c3.525-3.286,7.885-5.912,11.003-9.599c5.798-2.896,11.358-7.121,14.949-12.102c2.105-0.828,3.952-2.523,6.038-3.825
	C632.308,322.376,629.2,316.854,625.603,319.1z M507.386,301.976c-0.738,2.006-2.169,4.616-3.263,7.304
	c0.08-0.818-0.143-1.687-0.813-2.467c-2.869-3.341,2.07-9.898,4.719-11.75C511.022,292.967,507.892,300.603,507.386,301.976z"/>
<path fill="#B5B5B5" d="M578.543,331.672c-0.528-1.766-1.13-3.538-1.789-5.311c0.261-0.629,0.371-1.342,0.271-2.064
	c-0.644-4.634-3.781-8.259-6.685-11.757c-3.668-6.578-8.04-12.784-12.806-18.091c-2.115-2.357-6.574,0.102-5.438,3.165
	c0.221,0.595,0.44,1.193,0.66,1.793c-1.646,0.964-2.464,3.554-0.907,5.282c0.813,0.904,1.655,1.808,2.504,2.716
	c1.255,3.239,2.999,6.273,4.578,9.423c2.417,4.82,3.502,9.974,6.508,14.533c1.637,2.483,5.223,1.677,5.941-0.705
	c0.314,0.919,0.615,1.836,0.888,2.748C573.47,337.412,579.751,335.703,578.543,331.672z"/>
<path fill="#B5B5B5" d="M554.58,353.91c-1.586-0.62-3.169-1.229-4.754-1.841c0.131-0.911-0.126-1.846-0.968-2.528
	c-5.792-4.69-13.271-7.117-18.22-12.796c-1.833-2.104-4.457-0.77-5.22,1.282c-0.683,0.661-1.097,1.645-1.108,2.63
	c-0.143-0.319-0.343-0.617-0.612-0.876c-1.502-1.45-3.122-2.722-4.804-3.906c1.04-0.989,1.497-2.553,0.541-3.895
	c-0.419-0.588-0.87-1.158-1.337-1.72c2.551,0.317,4.565-0.816,4.384-5.098c-0.143-3.327-4.285-4.007-5.884-2.033
	c-0.876-0.557-1.681-1.232-2.479-1.892c-2.278-1.879-4.697-3.585-6.983-5.459c-0.415-0.34-0.817-0.693-1.226-1.041
	c-5.188-5.845-10.231-11.821-15.397-17.686c-1.989-2.259-5.343-0.333-5.555,2.131c-0.006-0.001-0.011-0.002-0.017-0.003
	c-0.428-0.506-0.876-1.003-1.369-1.478c-2.278-2.195-6.43-0.032-5.438,3.165c0.662,2.133,1.522,4.175,2.522,6.143
	c-1.213,0.942-1.872,2.619-0.893,4.177c2.28,3.63,5.007,6.782,7.983,9.85c2.417,4.029,5.287,8.069,8.983,10.726
	c-0.027,0.563,0.083,1.163,0.386,1.766c1.154,2.308,3.795,3.881,5.431,5.937c1.81,2.274,3.869,4.193,6.179,5.96
	c5.171,3.956,11.17,7.66,17.878,7.717c0.564,0.005,1.082-0.146,1.536-0.398c8.22,3.885,17.319,6.781,25.576,7.557
	C557.654,360.67,557.729,355.141,554.58,353.91z"/>
<path fill="#B5B5B5" d="M582.778,350.616c-0.273-0.179-0.562-0.324-0.868-0.393c-2.217-0.498-3.975-0.13-5.492,0.846
	c-0.275-0.468-0.645-0.879-1.105-1.169c-5.748-3.612-15.174-1.26-20.636,1.952c-0.93,0.547-1.415,1.29-1.562,2.071
	c-1.39,0.926-2.093,2.765-1.578,4.152c-0.886,1.95,0.11,4.617,2.829,4.61c0.096,0,0.188-0.009,0.283-0.009
	c0.249,0.622,0.673,1.175,1.328,1.517c3.65,1.906,7.987,2.549,12.074,1.866c1.26,0.312,2.539,0.472,3.827,0.524
	c1.922,2.074,5.054,3.08,7.346,0.788c0.191-0.191,0.35-0.396,0.487-0.607c1.242-0.382,2.31-1.229,3.059-2.871
	c0.895-1.963-0.076-4.333-1.996-4.819c0.66-0.584,1.261-1.231,1.79-1.95c0.51-0.077,0.959-0.139,1.298-0.194
	C587.77,356.295,586.407,350.665,582.778,350.616z"/>
<path fill="#B5B5B5" d="M305.96,303.553c0.127-0.319,0.258-0.644,0.376-0.951c1.113-2.89-2.49-4.831-4.779-3.674
	c-0.566,0.286-1.112,0.613-1.655,0.945c-0.872-0.32-1.893-0.278-2.869,0.323c1.074-1.236,2.065-2.524,2.932-3.88
	c0.456-0.653,0.888-1.328,1.271-2.046c0.154-0.289,0.257-0.588,0.32-0.888c0.332-0.737,0.634-1.49,0.875-2.275
	c0.377-1.227-0.164-2.571-1.112-3.394c-0.507-1.226-1.787-2.209-3.109-2.243c-3.394-0.085-6.614,0.849-9.7,2.223
	c-0.427-1.629-2.472-2.858-4.179-2.54c-8.185,1.523-14.502,7.972-21.003,12.718c-1.393,1.017-2.946,2.08-4.458,3.235
	c-0.156,0.07-0.313,0.138-0.468,0.21c0.051-2.083-1.623-4.203-4.003-3.368c-2.494,0.875-4.895,1.897-7.232,3.023
	c-0.449-1.587-2.227-2.736-4.047-2.372c-0.097,0.02-0.191,0.047-0.288,0.068c0.977-1.723-0.271-3.929-2.063-4.562
	c0.611-0.665,1.234-1.317,1.83-1.998c2.292-2.623-0.786-7.399-3.942-5.11c-6.724,4.876-12.069,10.787-17.504,17.011
	c-0.138,0.158-0.277,0.319-0.416,0.478c-3.981,3.689-7.923,7.419-11.586,11.434c-0.127,0.14-0.225,0.283-0.324,0.427
	c-0.979,0.939-1.957,1.88-2.93,2.827c-2.36,2.299-0.051,5.59,2.514,5.513c0.698,0.646,1.638,0.963,2.65,0.678
	c0.146,0.218,0.318,0.413,0.515,0.585c-1.716,1.971-3.236,4.104-4.452,6.463c-1.411,2.738,1.558,6.332,4.451,4.451
	c0.508-0.33,0.982-0.693,1.47-1.044c0.63,1.744,2.88,3.005,4.674,1.986c0.355,0.669,0.994,1.239,1.977,1.555
	c0.288,0.092,0.554,0.204,0.835,0.302c0.241,0.925,0.59,1.727,1.024,2.428c-1.741,1.563-1.609,5.345,1.178,5.729
	c0.295,0.041,0.581,0.052,0.871,0.075c-0.002,0.014-0.004,0.027-0.006,0.041c5.551,0.556,11.156,0.947,16.702,0.217
	c6.202-0.816,12.356-3.846,18.124-6.151c10.59-4.233,19.834-11.097,29.437-17.127c0.124-0.013,0.25-0.02,0.371-0.046
	c5.955-1.283,10.599-7.122,13.941-13.182c1.271-1.319,2.445-2.698,3.545-3.923C306.885,306.426,306.761,304.736,305.96,303.553z"/>
<path fill="#B5B5B5" d="M223.078,333.057c-2.214-1.975-5.348-3.01-7.865-2.352c-0.093-1.47-0.477-2.931-1.053-4.14
	c-0.183-0.385-0.417-0.725-0.679-1.035c1.316-2.295-0.407-5.594-3.546-4.807c-0.826,0.207-1.89,0.557-3.065,1.022
	c-0.282-0.017-0.564-0.002-0.839,0.063c-4.079,0.95-7.774,2.599-11.405,4.666c-0.819,0.466-1.285,1.146-1.472,1.885
	c-0.288,0.318-0.499,0.677-0.637,1.063c-0.414,0.07-0.826,0.136-1.235,0.194c-3.238,0.462-2.99,5.608,0,6.274
	c3.713,0.828,7.54,0.576,11.215,1.495c1.417,0.354,2.817,0.665,4.214,0.789c1.156,0.349,2.361,0.584,3.655,0.652
	c0.725,0.038,1.378-0.235,1.919-0.66c0.923,0.882,2.238,1.03,3.352,0.616c2.185,0.474,4.427,0.38,6.782-0.617
	C224.316,337.363,224.512,334.335,223.078,333.057z"/>
<path fill="#B5B5B5" d="M324.719,266.517c0.058-1.865-0.788-3.438-3.52-4.356c-3.435-1.155-5.159,3.339-3.049,5.46
	c-0.302,0.064-0.477,0.449-0.525,1.16c-0.123,0.346-0.276,0.683-0.419,1.022c-1.419-0.375-3.129,0.082-3.802,1.444
	c-3.023,6.123-4.728,12.655-6.844,19.12c-0.303,0.926-0.654,1.832-1.028,2.727c-0.896,1.388-1.764,2.778-2.539,4.181
	c-0.345,0.625-0.464,1.229-0.435,1.792c-2.576,4.552-5.565,8.922-7.807,13.608c-1.802,3.765,3.808,7.068,5.619,3.284
	c3.117-6.514,7.305-12.415,10.519-18.876c2.122-3.234,4.215-6.514,5.817-9.944c0.365-0.603,0.737-1.2,1.096-1.807
	c0.76-1.283,1.378-2.789,1.977-4.352c0.16-0.107,0.318-0.227,0.472-0.368c2.997-2.747,4.916-6.783,5.608-10.762
	C326.104,268.433,325.59,267.236,324.719,266.517z"/>
<path fill="#B5B5B5" d="M324.803,191.855c-5.517-4.379-10.876-7.757-17.397-10.413c-4.328-1.763-11.048-3.056-15.501-0.616
	c-3.486,1.91-3.259,5.163-0.767,7.821c2.227,2.376,5.469,0.143,5.492-2.404c1.525-0.235,3.06-0.207,4.604,0.092
	c3.962,0.587,8.008,2.675,11.451,4.634c2.769,1.577,10.614,6.202,12.748,10.169c-0.964,1.706-0.604,4.122,1.845,4.612
	c0.362,0.073,0.723,0.145,1.084,0.217c1.95,0.391,4.255-0.896,4.119-3.137C332.175,197.832,328.508,194.795,324.803,191.855z"/>
<path fill="#B5B5B5" d="M276.954,202.398c-4.753-0.436-8.33,2.122-10.005,6.529c-2.442,6.422-3.792,13.71-5.495,20.37
	c-0.766,2.994,3.214,5.728,5.438,3.165c3.629-4.182,6.019-9.163,9.185-13.672c1.963-2.796-1.39-5.461-4-4.542
	c0.572-2.837,1.492-5.652,4.877-5.342C281.134,209.288,281.096,202.777,276.954,202.398z"/>
<path fill="#B5B5B5" d="M327.058,260.744c-0.078-0.925-0.472-1.634-1.018-2.148c0.021-0.284,0.042-0.568,0.064-0.852
	c0.006-0.013,0.012-0.025,0.018-0.039c0.095-0.098,0.19-0.197,0.274-0.308c3.599-4.737,2.193-10.197,2.119-15.725
	c-0.051-3.792,0.001-7.993-2.167-11.172c-0.008-2.729-0.296-5.447-1.143-8.145c-0.845-2.695-4.446-3.223-5.947-0.777
	c-0.647,1.054-1.181,2.134-1.657,3.228c-1.146-3.021-3.076-4.749-6.159-4.073c-3.308,0.726-2.81,4.95-0.344,6.08
	c0.008,0.199,0.098,0.472,0.273,0.822c0.35,1.295,0.472,2.656,0.617,3.984c0.216,1.984,0.311,3.985,0.416,5.978
	c0.329,6.259-0.369,11.91-2.148,17.943c-0.601,2.037,1.051,4.118,3.137,4.118h0.216c1.051,0,2.355-0.598,2.81-1.611
	c1.221-2.725,1.965-5.584,2.506-8.499c0.037,2.142,0.269,4.277,0.807,6.4c-0.338,4.485-0.678,8.969-1.004,13.455
	c-0.145,0.581-0.272,1.164-0.346,1.751c-0.223,1.764,1.648,3.253,3.253,3.253h0.217c1.869,0,3.127-1.485,3.253-3.253
	c0.042-0.585,0.087-1.17,0.13-1.755C325.964,266.494,327.327,263.926,327.058,260.744z"/>
<path fill="#B5B5B5" d="M299.316,189.557c-0.549-1.153-1.63-2.139-3.409-2.872c-5.792-2.386-14.487,5.183-15.759,11.652
	c-0.821,2.579-0.003,4.893,1.658,6.713c-0.363,0.303-0.729,0.609-1.08,0.903c-3.221,2.698,1.407,7.276,4.601,4.601
	c0.569-0.477,1.375-1.162,2.313-1.996c0.27,0.082,0.54,0.164,0.812,0.23c2.836,0.687,4.53-2.139,3.93-4.255
	c2.057-1.108,3.943-2.675,5.494-4.197C300.832,197.436,302.979,191.866,299.316,189.557z M287.124,199.596
	c-0.135-0.02-0.241-0.029-0.335-0.033c0.161-0.306,0.394-0.645,0.729-1.029c0.864-0.991,2.089-1.912,3.44-2.574
	c-0.878,1.227-1.885,2.401-2.976,3.521C287.68,199.581,287.386,199.634,287.124,199.596z"/>
<path fill="#B5B5B5" d="M328.042,250.118c-0.71,2.731-2.473,4.974-3.801,7.428c-1.278,2.361-1.826,5.185-4.248,6.678
	c-3.563,2.198-0.298,7.828,3.284,5.619c2.876-1.774,4.419-4.245,5.775-7.27c1.639-3.652,4.244-6.806,5.263-10.726
	C335.373,247.783,329.096,246.06,328.042,250.118z"/>
<path fill="#B5B5B5" d="M988.747,72.776c0.324-1.069-0.055-2.2-0.81-3.016c0.872-2.377-1.257-5.034-3.889-4.311
	c-0.943,0.259-1.863,0.564-2.771,0.893c-0.003-0.001-0.004-0.002-0.007-0.003c-0.129-0.306-0.291-0.592-0.506-0.84
	c0.803-1.935-0.693-4.799-3.009-4.503c-0.585,0.074-1.161,0.169-1.73,0.279c-0.626-0.614-1.495-1.029-2.39-1.147
	c-8.213-1.092-48.034,21.662-38.375,30.605c-0.408,0.967-0.746,1.968-0.986,3.017c-0.351,1.537,0.326,3.107,1.716,3.785
	c0.072,0.69,0.266,1.368,0.604,2.025c0.658,1.278,1.615,1.953,2.755,2.196c-0.18,0.506-0.219,1.021-0.145,1.514
	c-0.548,0.889-1.075,1.79-1.563,2.716c-0.487,0.926-0.493,1.89-0.186,2.717c-0.881,2.498,2.479,5.201,4.853,3.686
	c0.096-0.061,0.182-0.132,0.277-0.193c1.666,2.296,6.113,1.736,5.889-1.748c-0.07-1.117,0.118-2.217,0.472-3.299
	c2.271-2.106,4.406-4.359,6.517-6.646c3.469-2.417,7.045-4.688,10.289-7.086c7.48-5.53,16.985-10.683,22.621-18.201
	C988.937,74.467,989.003,73.584,988.747,72.776z"/>
<path fill="#B5B5B5" d="M1010.818,92.24c-0.109,0.081-0.212,0.167-0.321,0.249c-0.521-1.882-2.549-3.204-4.667-1.984
	c-0.274,0.157-0.524,0.34-0.794,0.504c0.698-0.896,1.37-1.815,1.991-2.777c1.233-1.907-0.084-4.14-1.917-4.748
	c0.399-0.365,0.789-0.74,1.191-1.101c2.904-2.599-0.772-6.597-3.838-5.091c0.145-0.188,0.303-0.365,0.443-0.556
	c2.175-2.945-1.852-5.593-4.452-4.451c-0.826,0.363-1.63,0.766-2.425,1.186c2.015-2.029,3.621-4.156,3.85-7.269
	c0.1-1.349-1.057-2.878-2.388-3.137c-6.61-1.286-12.62,2.32-18.276,5.36c-6.928,3.723-13.306,8.623-19.165,13.841
	c-7.859,7.001-19.563,17.278-17.316,29.048c0.169,0.883,0.978,1.765,1.898,2.169c0.232,1.592,1.622,2.775,3.148,2.824
	c0.021,1.488,1.249,2.787,2.683,3.149c-0.128,0.468-0.254,0.937-0.354,1.407c-0.535,2.497,2.287,5.516,4.779,3.674
	c1.263-0.933,2.385-1.977,3.446-3.067c0.254,0.877,0.905,1.597,1.71,2.022c-1.886,6.125-2.205,11.652,3.48,10.266
	c1.464-0.356,2.726-1.565,3.824-2.912c0.163,0.144,0.335,0.283,0.523,0.415c0.183,0.128,0.368,0.236,0.557,0.327
	c-1.777,6.178-1.998,11.811,3.165,11.666c1.482-0.042,2.862-0.623,4.155-1.529c0.434,2.083,2.521,3.704,4.733,2.333
	c0.114-0.071,0.213-0.151,0.322-0.225c0.089,1.263,0.317,2.503,0.755,3.702c0.659,1.804,2.944,3.261,4.779,1.944
	c3.204-2.298,5.442-5.929,7.402-9.682c0.011,0,0.021,0.004,0.031,0.004c3.128-0.107,4.854-2.839,6.531-5.154
	c3.879-5.352,7.451-10.779,10.411-16.701c0.76-1.522,0.274-2.962-0.687-3.892c1.51-2.134,2.987-4.293,4.372-6.519
	c1.927-3.094-1.915-5.912-4.612-4.299c1.908-2.129,3.766-4.29,5.481-6.546C1017.218,94.129,1013.381,90.341,1010.818,92.24z
	 M985.166,74.846c-0.222,0.026-0.447,0.068-0.683,0.147c-0.606,0.204-1.196,0.434-1.778,0.676c-0.502,0.07-1.013,0.18-1.531,0.326
	c-0.173-0.366-0.413-0.687-0.71-0.945c3.181-2.079,7.073-4.391,10.652-5.368C989.089,71.733,986.275,73.812,985.166,74.846z
	 M976.676,127.729c1.698-1.881,3.279-4.1,4.562-6.021c-1.638,3.002-3.278,5.957-5.011,8.75c-0.362,0.583-0.741,1.159-1.124,1.731
	C975.564,130.686,976.092,129.198,976.676,127.729z"/>
<path fill="#B5B5B5" d="M1022.694,80.204c-0.135-0.535-1.543-2.529-2.786-4.264c-0.061-1.209-0.422-2.302-1.01-3.388
	c-0.168-3.288-1.021-6.344-3.27-8.434c-1.132-1.053-2.763-1.229-4.028-0.441c-0.36-1.417-1.805-2.629-3.262-2.68
	c-0.816-0.029-1.634-0.004-2.45,0.043c-0.017-0.086-0.034-0.171-0.051-0.257c-0.292-1.557-1.531-2.281-2.843-2.323
	c-2.04-2.501-9.113-1.997-12.853-1.385c-0.671-0.504-1.539-0.912-2.626-1.2c-1.828-1.106-4.238-1.196-6.435-0.525
	c-3.083,0.105-6.461,0.748-8.126,2.84c-2.261,2.843-1.881,5.522,1.167,7.567c0.35,0.235,0.739,0.44,1.161,0.622
	c-2.096,2.156-3.518,4.706-3.13,7.577c0.338,2.505,1.636,3.833,3.492,4.338c0.197,0.315,0.471,0.615,0.796,0.901
	c-0.025,1.761,1.087,3.325,4.137,4.244c2.314,0.697,3.854-1.079,3.994-2.946c2.516-0.634,5.157-1.812,7.47-2.936
	c-0.822,4.088-1.063,8.173-0.838,11.421c0.156,2.259,2.265,3.686,4.201,3.098c0.66,3.065,5.338,3.433,6.311,0.152
	c0.282-0.952,0.529-1.917,0.759-2.889c0.082,0.137,0.149,0.278,0.236,0.413c0.099,0.154,0.226,0.264,0.341,0.396
	c0.073,0.173,0.149,0.344,0.229,0.513c-0.471,4.374-0.818,10.984,3.429,11.992c0.021,0.59,0.056,1.168,0.112,1.725
	c0.026,0.262,0.089,0.513,0.167,0.757c-2.227,3.836-3.962,7.868-2.654,12.254c0.739,2.476,4.718,3.48,5.946,0.777
	c1.172-2.574,2.125-5.283,3.109-7.98c0.588-0.237,1.104-0.665,1.445-1.347c3.221-6.452,8.307-13.411,7.653-20.925
	C1023.182,85.441,1023.412,83.058,1022.694,80.204z"/>
<path fill="#B5B5B5" d="M992.732,137.438c-0.037,0.064-0.069,0.131-0.106,0.196c-0.104,0.002-0.21,0.02-0.313,0.032
	c-0.28-0.191-0.581-0.373-0.93-0.535c-0.651-0.304-1.312-0.434-1.97-0.434c-0.094-2.298-1.059-4.383-3.439-5.938
	c-0.752-0.491-1.506-0.76-2.255-0.862c1.267-4.865,0.93-9.233-3.522-10.877c-0.78-0.288-1.511-0.377-2.201-0.326
	c-1.521-1.966-3.806-2.919-7.069-2.126c-3.536,0.859-4.797,4.736-4.894,9.498c-0.778-1.207-1.57-2.407-2.386-3.594
	c-1.074-1.567-2.779-1.836-4.102-1.244c-0.149-0.237-0.305-0.47-0.453-0.708c-1.536-2.465-4.627-1.778-5.665,0.284
	c-0.165-0.122-0.32-0.249-0.489-0.367c-0.529-0.369-1.086-0.516-1.629-0.51c-0.178-0.167-0.357-0.334-0.533-0.5
	c-0.147-0.139-0.301-0.253-0.458-0.359c-0.239-0.468-0.469-0.941-0.702-1.412c-1.191-4.101-3.338-8.033-5.055-11.887
	c-0.578-1.298-1.768-1.732-2.945-1.586c-0.383-1.79-0.76-3.581-1.053-5.376c1.436-2.21,2.707-4.522,3.677-7.015
	c0.056-0.144,0.086-0.279,0.122-0.416c1.977-1.975,3.641-4.207,4.648-6.959c0.927-2.53-1.79-4.417-4.003-4.002
	c-8.158,1.529-17.353,9.031-19.841,17.021c-0.574,1.844,0.578,3.342,2.136,3.862c-0.254,0.365-0.501,0.736-0.75,1.105
	c-2.316-0.118-4.573,2.068-3.009,4.697c0.026,0.044,0.049,0.089,0.076,0.133c-0.522,1.686,0.525,3.143,1.965,3.71
	c1.106,2.239,2.176,4.491,3.599,6.568c0.956,1.396,2.373,1.766,3.592,1.429c-0.239,0.848-0.176,1.763,0.313,2.476
	c4.807,7.017,11.669,12.45,19.058,16.615c0.682,0.77,1.369,1.524,2.056,2.263c1.169,1.26,2.566,1.26,3.65,0.616
	c0.661,0.668,1.339,1.313,2.046,1.92c0.253,0.525,0.641,1.05,1.191,1.558c0.809,0.747,1.753,1.453,2.779,2.07
	c-0.037,0.827,0.25,1.659,0.962,2.294c0.641,0.572,1.313,1.186,2.007,1.813c0.067,0.1,0.111,0.202,0.187,0.301
	c1.211,1.585,2.522,2.619,3.834,3.199c4.929,4.018,10.696,7.41,16.702,5.386c7.575-2.553,8.524-13.264,11.122-19.509
	C1000.123,136.475,994.522,134.32,992.732,137.438z M982.939,136.762c0.182,1.609-0.443,3.429-1.381,5.223
	c-0.456,0.565-0.892,1.144-1.305,1.72c-0.004-0.023-0.007-0.045-0.011-0.068c-0.148-0.996-0.736-1.642-1.494-1.996
	c0.021-0.039,0.042-0.079,0.063-0.118C979.727,140.409,982.974,137.057,982.939,136.762z"/>
<g>
	<g>
		<g>
			<path fill="#1D1D1B" d="M330.008,334.19c-0.649,0.738-0.743,0.946-0.281,0.625c-1.14-0.299-2.28-0.598-3.42-0.896
				c0.833-2.47,1.116-2.632,0.848-0.487c-0.372,0.062-0.19,0.285,0.545,0.672c-0.071-0.179,0.163-0.492,0.216-0.586
				c-0.329,0.573-1.229-0.678-0.659,0.264c0.145,0.239,0.245,0.664,0.204,0.952c-0.167,1.165-0.125,0.052,0.031,0.126
				c-0.438-0.292-0.456-0.335-0.056-0.128c0.206-0.244,0.451-0.439,0.734-0.587c0.425-0.13,0.414-0.216-0.033-0.257
				c0.324,0.354,0.343,0.713,0.059,1.075c-0.132,0.252-1.504,1.308-1.736,0.673c-0.158-0.433,0.911-3.033,1.446-2.948
				c0.902,0.145,1.798,1.848,1.434,2.666c-1.126,2.532-4.847-4.257-1.051-3.433c1.9,0.412,1.527,6.463-0.913,5.373
				c-1.442-0.645-1.154-2.77-0.554-3.842c0.682-1.22,2.908-1.937,3.447-0.262c0.38,1.18-0.438,2.833-1.013,3.804
				c-0.889,1.497-2.273,1.391-3.542,0.4c-1.278-0.998-1.17-2.729-0.149-3.941c0.523-0.622,1.155-0.723,1.857-0.372
				c0.383,0.187,0.744,0.409,1.082,0.668c0.667,0.535,0.237,0.84,0.798,0.178c-2.069,2.445,1.45,6,3.535,3.535
				c3.794-4.483-2.265-10.139-6.999-9.532c-5.204,0.666-8.042,8.157-4.552,12.091c3.836,4.325,9.604,4.017,12.572-0.984
				c2.491-4.196,1.841-10.707-3.755-11.682c-5.939-1.034-9.607,4.815-8.448,10.101c1.289,5.876,9.012,6.237,11.84,1.502
				c2.194-3.674,0.741-10.115-3.432-11.689c-5.504-2.076-9,3.368-8.129,8.225c0.91,5.077,8.46,7.32,11.44,2.812
				c2.44-3.691-0.296-10.919-5.331-10.61c-4.668,0.285-8.346,6.75-5.676,10.825c1.413,2.156,4.513,2.57,6.784,1.821
				c2.667-0.88,4.42-3.804,4.185-6.53c-0.542-6.298-8.987-5.866-10.735-0.519c-1.613,4.934,5.115,8.977,8.579,4.961
				c2.925-3.391,0.646-9.05-3.654-9.587c-4.341-0.543-6.114,6.101-3.454,8.703c2.483,2.429,7.033,0.582,7.888-2.527
				c0.851-3.095-3.074-7.413-6.153-5.107c-2.18,1.632-3.453,5.917,0.103,6.961c3.57,1.048,6.319-1.921,4.714-5.299
				c-0.581-1.223-2.327-1.552-3.42-0.896c-1.028,0.614-1.682,1.152-2.017,2.361C324.324,335.973,329.148,337.292,330.008,334.19
				L330.008,334.19z"/>
		</g>
	</g>
	<g>
		<g>
			<path fill="#1D1D1B" d="M324.98,337.621c-1.823,0.396-0.036-5.406,0.231-6.015c0.728-1.658,4.342-4.594,5.625-1.297
				c0.812,2.088,0.774,5.462-0.668,7.305c-1.166,1.488-4.803-0.436-5.896-1.021c-1.091-0.584-3.5-2.625-2.313-4.153
				c0.922-1.187,2.776-1.62,4.138-2.01c1.103-0.315,3.675-1.215,4.275,0.338c0.655,1.691,0.093,4.47-0.293,6.136
				c-0.687,2.962-2.325,1.749-3.762,0.413c-2.107-1.959-1.33-4.906-0.215-7.154c1.595-3.218,4.734-2.827,5.936,0.488
				c0.853,2.352,0.549,5.376-0.48,7.632c-1.534,3.364-12.56-0.726-9.644-5.767c0.742-1.282,1.89-2.322,2.985-3.296
				c2.167-1.927,3.252-1.317,3.801,1.419c0.211,1.052,1.139,10.401-0.236,10.581c-1.595,0.208-3.54-1.17-4.828-1.98
				c-2.892-1.82-2.07-5.755-0.705-8.2c1.159-2.077,4.214-4.184,6.374-2.064c1.343,1.318,1.845,3.691,2.387,5.433
				c1.703,5.471-5.153,6.417-8.449,3.576c-4.334-3.736,1.905-12.302,6.707-8.547c3.394,2.655,5.696,11.124-1.052,11.172
				c-1.594,0.012-3.109-0.049-4.564-0.756c-2.504-1.216-1.231-6.438-0.844-8.496c0.587-3.119,9.899-8.781,10.283-3.688
				c0.241,3.194,5.242,3.218,5,0c-0.29-3.846-2.35-6.225-6.24-6.748c-4.589-0.617-8.066,1.636-11.34,4.547
				c-2.956,2.628-3.356,7.65-3.182,11.312c0.217,4.542,2.583,7.733,7.104,8.618c3.828,0.75,7.648,0.167,10.506-2.555
				c2.801-2.666,3.484-7.923,1.949-11.335c-1.464-3.255-5.095-8.017-9.056-8.229c-4.271-0.23-7.818,2.444-10.12,5.825
				c-5.125,7.526,2.209,16.686,10.517,15.292c3.53-0.593,6.79-1.677,7.957-5.357c1.184-3.736-1.094-9.161-3.016-12.293
				c-5.167-8.42-16.025-1.033-16.998,6.536c-0.552,4.298,0.874,7.674,4.259,10.275c2.646,2.034,8.093,4.109,10.963,1.415
				c3.186-2.991,2.016-8.454,1.833-12.401c-0.178-3.846-1.129-8.506-5.291-9.74c-6.253-1.854-14.941,9.346-11.952,14.882
				c3.343,6.191,17.339,10.597,19.956,1.412c1.265-4.44,1.021-8.549-0.991-12.715c-1.853-3.838-6.068-4.868-9.649-2.97
				c-7.828,4.15-7.695,15.239-0.368,19.549c8.341,4.905,11.359-8.95,9.253-14.394c-2.423-6.264-14.717-3.704-17.305,1.42
				c-3.719,7.362,5.483,13.119,11.904,13.132c9.639,0.02,9.269-20.838-1.102-19.274c-5.13,0.773-8.42,5.138-9.117,10.101
				c-0.639,4.55,1.988,9.573,7.061,8.471C329.46,341.757,328.124,336.938,324.98,337.621L324.98,337.621z"/>
		</g>
	</g>
	<g>
		<g>
			<path fill="#1D1D1B" d="M331.541,325.922c5.011,2.503,7.836,8.986,4.47,14.149c-2.847,4.366-10.703,7.241-14.308,2.134
				c-2.841-4.025-1.564-10.6,0.462-14.576c2.659-5.22,10.756-4.072,14.125-0.507c4.108,4.35,2.828,11.841-0.988,15.905
				c-2.845,3.029-10.367,3.717-13.311,0.876c-4.808-4.641-3.754-8.766-1.518-14.543c1.758-4.542,7.647-7.612,11.647-3.612
				c2.282,2.282,5.817-1.254,3.535-3.535c-13.221-13.222-29.804,13.248-18.124,24.35c3.472,3.3,5.58,3.994,10.392,3.994
				c4.267,0,8.844-1.79,11.781-4.918c5.771-6.146,5.762-18.081-1.205-23.311c-6.506-4.883-15.929-4.285-20.652,2.777
				c-4.29,6.415-3.722,16.828,1.758,22.298c5.346,5.337,16.295,1.91,19.967-3.725c5.08-7.795,2.898-17.875-5.508-22.073
				C331.189,320.169,328.656,324.482,331.541,325.922L331.541,325.922z"/>
		</g>
	</g>
</g>
<g>
	<g>
		<path fill="#1D1D1B" d="M448.435,337.661c-0.65,0.736-0.744,0.945-0.281,0.625c-1.14-0.299-2.28-0.598-3.42-0.896
			c0.833-2.47,1.116-2.633,0.848-0.487c-0.373,0.059-0.191,0.282,0.545,0.671c-0.071-0.178,0.163-0.492,0.216-0.585
			c-0.329,0.573-1.228-0.677-0.659,0.263c0.145,0.24,0.245,0.665,0.204,0.952c-0.167,1.165-0.125,0.053,0.031,0.126
			c-0.438-0.292-0.456-0.334-0.056-0.128c0.206-0.244,0.451-0.439,0.734-0.586c0.425-0.13,0.414-0.216-0.034-0.258
			c0.324,0.355,0.344,0.714,0.059,1.076c-0.132,0.252-1.504,1.308-1.736,0.672c-0.158-0.433,0.912-3.032,1.446-2.947
			c0.902,0.145,1.798,1.848,1.434,2.665c-1.126,2.533-4.847-4.258-1.051-3.433c1.902,0.413,1.524,6.462-0.913,5.373
			c-1.442-0.644-1.154-2.77-0.554-3.842c0.682-1.22,2.908-1.936,3.447-0.261c0.38,1.18-0.438,2.833-1.013,3.804
			c-0.889,1.497-2.274,1.39-3.542,0.399c-1.278-0.998-1.171-2.729-0.149-3.941c0.524-0.622,1.155-0.723,1.857-0.371
			c0.383,0.187,0.744,0.409,1.082,0.667c0.668,0.537,0.237,0.841,0.798,0.178c-2.07,2.444,1.448,5.999,3.535,3.535
			c3.797-4.482-2.268-10.139-6.999-9.532c-5.203,0.666-8.042,8.158-4.552,12.092c3.836,4.323,9.604,4.017,12.572-0.984
			c2.49-4.195,1.841-10.709-3.755-11.682c-5.94-1.032-9.607,4.813-8.448,10.101c1.289,5.876,9.012,6.235,11.84,1.501
			c2.195-3.674,0.741-10.114-3.432-11.689c-5.504-2.077-9,3.369-8.129,8.225c0.91,5.078,8.459,7.319,11.44,2.812
			c2.441-3.691-0.297-10.917-5.331-10.61c-4.668,0.285-8.346,6.75-5.676,10.825c1.413,2.156,4.513,2.571,6.784,1.822
			c2.668-0.88,4.42-3.805,4.185-6.531c-0.542-6.297-8.987-5.866-10.735-0.519c-1.613,4.934,5.115,8.978,8.579,4.962
			c2.925-3.392,0.645-9.05-3.654-9.587c-4.34-0.543-6.114,6.101-3.454,8.702c2.483,2.429,7.033,0.583,7.888-2.526
			c0.851-3.094-3.074-7.414-6.153-5.108c-2.18,1.633-3.453,5.918,0.103,6.962c3.569,1.048,6.32-1.921,4.714-5.299
			c-0.582-1.225-2.325-1.549-3.42-0.896c-1.029,0.612-1.683,1.153-2.017,2.361C442.753,339.444,447.577,340.764,448.435,337.661
			L448.435,337.661z"/>
	</g>
</g>
<g>
	<g>
		<path fill="#1D1D1B" d="M443.408,341.091c-1.823,0.396-0.036-5.406,0.231-6.015c0.729-1.658,4.343-4.596,5.625-1.297
			c0.811,2.088,0.774,5.461-0.669,7.304c-1.167,1.489-4.801-0.435-5.896-1.021c-1.091-0.585-3.5-2.626-2.313-4.154
			c0.922-1.187,2.776-1.62,4.138-2.01c1.103-0.314,3.674-1.215,4.275,0.339c0.655,1.691,0.093,4.47-0.293,6.136
			c-0.687,2.962-2.325,1.749-3.762,0.412c-2.107-1.959-1.33-4.905-0.215-7.154c1.595-3.217,4.734-2.828,5.936,0.488
			c0.853,2.352,0.549,5.376-0.48,7.633c-1.535,3.364-12.56-0.728-9.644-5.767c0.742-1.282,1.89-2.322,2.985-3.296
			c2.167-1.926,3.251-1.318,3.801,1.418c0.211,1.053,1.139,10.402-0.236,10.581c-1.596,0.208-3.539-1.169-4.828-1.98
			c-2.893-1.819-2.07-5.755-0.705-8.2c1.16-2.076,4.214-4.184,6.374-2.064c1.343,1.318,1.845,3.691,2.387,5.433
			c1.703,5.47-5.153,6.418-8.449,3.576c-4.334-3.736,1.906-12.304,6.707-8.546c3.393,2.656,5.696,11.122-1.053,11.172
			c-1.593,0.012-3.108-0.05-4.563-0.756c-2.504-1.215-1.231-6.439-0.844-8.496c0.586-3.121,9.899-8.781,10.283-3.688
			c0.24,3.194,5.242,3.218,5,0c-0.29-3.847-2.35-6.225-6.24-6.748c-4.589-0.618-8.066,1.636-11.34,4.546
			c-2.956,2.628-3.356,7.65-3.182,11.312c0.217,4.543,2.583,7.732,7.104,8.619c3.827,0.751,7.649,0.167,10.506-2.555
			c2.8-2.667,3.483-7.923,1.949-11.335c-1.463-3.254-5.096-8.02-9.056-8.23c-4.271-0.228-7.817,2.443-10.12,5.826
			c-5.123,7.522,2.208,16.689,10.517,15.292c3.531-0.595,6.79-1.676,7.957-5.358c1.184-3.736-1.094-9.16-3.016-12.293
			c-5.167-8.42-16.025-1.033-16.998,6.536c-0.552,4.298,0.873,7.674,4.259,10.275c2.646,2.033,8.093,4.11,10.963,1.416
			c3.186-2.991,2.016-8.455,1.833-12.402c-0.178-3.846-1.13-8.506-5.291-9.739c-6.251-1.854-14.942,9.346-11.951,14.881
			c3.345,6.192,17.338,10.598,19.956,1.413c1.265-4.44,1.021-8.55-0.991-12.716c-1.853-3.837-6.069-4.87-9.649-2.969
			c-7.826,4.153-7.696,15.237-0.368,19.548c8.34,4.907,11.359-8.949,9.253-14.393c-2.423-6.264-14.717-3.706-17.305,1.419
			c-3.718,7.362,5.482,13.121,11.904,13.133c9.639,0.017,9.269-20.837-1.102-19.275c-5.13,0.773-8.42,5.138-9.117,10.101
			c-0.639,4.55,1.988,9.573,7.061,8.472C447.887,345.229,446.551,340.409,443.408,341.091L443.408,341.091z"/>
	</g>
</g>
<g>
	<g>
		<path fill="#1D1D1B" d="M449.968,329.393c5.009,2.504,7.838,8.985,4.47,14.148c-2.848,4.366-10.702,7.242-14.308,2.135
			c-2.842-4.025-1.564-10.601,0.462-14.577c2.659-5.219,10.756-4.071,14.125-0.507c4.108,4.349,2.828,11.843-0.988,15.906
			c-2.845,3.028-10.369,3.717-13.311,0.875c-4.805-4.643-3.756-8.764-1.518-14.542c1.759-4.54,7.648-7.616,11.647-3.612
			c2.28,2.283,5.816-1.252,3.535-3.535c-13.213-13.229-29.807,13.248-18.124,24.35c3.473,3.3,5.579,3.993,10.392,3.993
			c4.267,0,8.843-1.79,11.781-4.917c5.77-6.143,5.764-18.085-1.205-23.311c-6.508-4.881-15.927-4.287-20.652,2.776
			c-4.291,6.415-3.722,16.828,1.758,22.299c5.347,5.336,16.295,1.909,19.968-3.726c5.081-7.797,2.897-17.872-5.508-22.072
			C449.617,323.639,447.083,327.952,449.968,329.393L449.968,329.393z"/>
	</g>
</g>
<g>
	<g>
		<path fill="#1D1D1B" d="M375.878,375.367c2.46-4.141,12.15-3.64,16.178-3.516c5.346,0.166,11.402,1.091,15.648,4.546
			c1.649,1.343,3.98,3.659,3.616,5.991c-0.385,2.465-3.59,5.765-5.191,7.392c-3.922,3.988-11.425,4.489-16.581,4.862
			c-4.406,0.319-12.123,0.625-15.561-2.537c-1.281-1.178-2.345-2.621-3.813-3.614c-3.72-2.521-2.506-8.202,0.058-11.255
			c3.625-4.315,10.433-3.307,15.325-3.814c4.639-0.481,8.127,0.437,12.448,1.82c2.331,0.746,4.327-2.53,2.432-4.179
			c-3.549-3.09-9.261-3.181-13.729-2.367c-5.802,1.058-10.453,4.305-15.083,7.76c-2.055,1.533-5.296,4.705-2.696,7.305
			c2.886,2.887,8.658-1.905,11.167-3.15c3.32-1.647,7.174-3.213,10.941-3.12c0.168,1.205,0.336,2.411,0.504,3.617
			c-0.803,0.753-1.62,1.49-2.451,2.213c-1.235,0.922-2.786,1.4-4.225,1.889c-1.557,0.529-2.909,1.037-4.585,1.19
			c-4.281,0.392-0.237-4.387,0.107-4.768c2.336-2.58,5.84-4.507,9.035-5.729c3.389-1.297,13.832-1.313,8.446,5.307
			c-2.117,2.603-6.125,3.654-9.146,4.686c-1.945,0.665-3.891,1.168-5.939,1.427c-3.382,0.428-5.249-2.996-2.927-5.486
			c2.912-3.122,7.826-4.815,11.922-5.171c4.021-0.349,12.446,1.722,7.798,7.127c-2.269,2.64-6.347,4.009-9.542,4.97
			c-3.688,1.109-8.377,1.908-11.99,0.269c-3.374-1.531-1-5.778,0.544-7.378c1.604-1.663,3.915-2.754,6.094-3.391
			c3.419-0.997,7.339-0.813,10.757-0.003c1.76,0.418,6.987,1.844,5.164,5.024c-0.979,1.706-2.794,3.121-4.268,4.394
			c-2.865,2.474-6.592,3.958-10.19,4.954c-4.926,1.364-11.952-5.859-6.158-9.388c2.961-1.803,6.742-2.827,10.153-3.189
			c0.81-0.086,12.258,1.041,10.372,3.303c-1.421,1.704-5.089,3.027-7.056,3.854c-3.466,1.457-7.553,2.351-11.292,2.458
			c-2.937,0.085-8.925-1.763-4.419-6.505c1.428-1.503,3.218-1.933,5.158-2.344c1.46-0.31,6.921-1.228,3.344,0.906
			c-3.369,2.009-6.788,3.188-10.706,3.609c-0.907-0.129-1.814-0.259-2.722-0.389c-0.513,1.065-0.025,0.784,1.464-0.844
			c1.552-1.016,3.871-1.53,5.684-1.839c1.172-0.199,2.886-0.97,4.059-0.806c-0.582-1.025-1.164-2.051-1.746-3.076
			c0.809-0.867,0.61-0.937-0.596-0.207c-0.689,0.257-1.411,0.436-2.11,0.661c-1.176,0.38-2.262,0.963-3.326,1.582
			c-1.893,1.101-4.075,3.131-2.963,5.499c2.625,5.594,12.744-0.813,12.616-5.397c-0.225-8.03-9.134-3.179-11.881,0.633
			c-1.659,2.302-0.136,5.269,2.278,6.122c3.85,1.36,8.58,0.732,12.464-0.271c3.12-0.807,1.795-5.629-1.329-4.822
			c-1.77,0.458-3.458,0.699-5.287,0.664c0.052,0.001-3.828,0.47-2.598-0.468c0.282-0.188,0.563-0.374,0.846-0.562
			c1.914-0.696,1.868-0.957-0.137-0.781c-0.835,0.71-1.732,1.331-2.693,1.862c-0.458,2.552-0.054,3.165,1.208,1.839
			c2.658-1.787,7.198-1.539,8.33-5.023c0.381-1.173-0.436-2.893-1.746-3.076c-3.797-0.529-8.92,0.901-12.351,2.551
			c-2.521,1.213-8.29,5.579-4.547,8.823c4.014,3.479,9.559,2.308,14.219,0.92c3.22-0.959,9.938-3.672,10.97-7.422
			c1.091-3.966-3.032-5.553-6.135-5.967c-5.229-0.696-10.698,1.346-14.253,5.088c-3.224,3.393-2.357,7.702,0.271,11.033
			c3.393,4.302,10.847,3.059,15.368,2.101c4.129-0.876,23.853-7.507,15.146-14.921c-7.974-6.79-21.648-4.042-29.268,1.991
			c-3.708,2.936-2.647,8.042-0.152,11.288c3.354,4.364,7.463,6.283,12.85,5.33c7.363-1.303,24.97-11.92,16.486-20.617
			c-3.63-3.722-10.653-4.34-15.5-4.151c-5.604,0.22-10.531,2.451-14.412,6.473c-2.646,2.743-3.98,8.705-1.22,11.83
			c4.078,4.617,9.797,4.163,15.388,3.302c8.156-1.255,23.627-9.028,15.656-18.97c-2.974-3.71-10.303-4.083-14.505-3.413
			c-5.1,0.813-11.254,3.575-14.371,7.899c-2.539,3.522-3.21,7.637,0.36,10.667c4.343,3.686,11.348,1.388,16.029-0.211
			c4.818-1.646,9.365-3.771,11.995-8.324c2.076-3.593,0.428-9.188-3.486-10.754c-8.487-3.398-22.138,2.104-25.771,10.792
			c-1.594,3.811,0.011,7.138,3.623,8.932c3.947,1.961,10.448-1.278,13.864-3.268c2.817-1.641,5.081-4.474,6.049-7.54
			c0.812-2.571-1.023-6.603-3.785-7.244c-3.763-0.873-7.484,0.002-11.081,1.2c-2.318,0.772-4.54,1.899-6.722,2.981
			c-0.978,0.499-1.954,1.003-2.927,1.511c-1.713,0.891-1.063,0.408-0.523,1.656c0,0.841,0,1.683,0,2.523
			c1.158-2.742,5.271-4.711,7.648-6.254c3.663-2.379,12.663-5.324,16.627-1.873c0.811-1.393,1.622-2.785,2.432-4.179
			c-3.195-1.022-5.515-1.89-9.011-2.131c-4.112-0.284-8.828,0.046-12.914,0.515c-6.699,0.767-12.001,4.66-13.961,11.074
			c-1.028,3.366-1.16,6.251,0.276,9.465c1.181,2.645,5.602,5.265,7.708,7.201c2.226,2.046,5.857,2.414,8.708,2.796
			c4.368,0.587,8.973,0.335,13.354,0.017c6.796-0.493,14.776-3.107,18.75-9.019c3.901-5.801,5.775-9.667,0.904-15.474
			c-4.85-5.781-12.073-7.302-19.271-7.902c-6.512-0.543-18.441-0.646-22.319,5.882C369.91,375.622,374.233,378.135,375.878,375.367
			L375.878,375.367z"/>
	</g>
</g>
<g>
	<g>
		<path fill="#1D1D1B" d="M393.236,389.236c-0.724,1.643-4.915,0.782-6.562,2.003c1.254,0.72,2.508,1.439,3.762,2.159
			c0.01-0.108,0.02-0.216,0.03-0.324c-0.612,0.804-1.224,1.607-1.835,2.411c5.882-2.153,12.109-3.565,17.811-6.166
			c-0.291-0.721-0.582-1.44-0.873-2.161c-0.45,0.448-0.946,0.838-1.488,1.17c-1.107,0.759-2.238,0.816-3.563,0.8
			c-1.009-0.229-1.126,0.04-0.352,0.806c0.728-0.78,1.559-1.43,2.492-1.947c1.969-1.299,4.467-1.157,6.712-1.204
			c1.458-0.03,2.373-1.12,2.5-2.5c0.02-0.216,0.04-0.432,0.061-0.647c0.155-1.631-1.711-2.829-3.165-2.411
			c-1.145,0.329-1.882,0.719-2.813,1.464c-0.596,0.422-1.233,0.762-1.912,1.019c-0.197,0.09-0.394,0.181-0.59,0.271
			c-1.378,0.173-1.593,0.525-0.645,1.056c0.193-0.65,0.329-1.313,0.409-1.986c0.318-1.928,1.378-1.461-0.645-0.214
			c2.424-1.493,1.391,0.789,0.388,1.117c0.941,0.384,1.882,0.767,2.823,1.149c-0.727-0.777-1.53-1.474-2.409-2.091
			c-3.083,0.916-1.77,5.742,1.329,4.822c1.947-0.579,5.273-2.305,5.611-4.654c0.25-1.744,0.125-4.704-2.242-5.075
			c-4.813-0.754-9.46,5.138-6.606,9.521c0.593,0.91,1.727,1.508,2.823,1.149c3.042-0.997,5.066-4.574,5.263-7.646
			c0.266-4.159-5.2-4.296-7.798-3.482c-2.991,0.937-6.561,5.05-4.512,8.296c2.456,3.89,6.822,2.148,9.859-0.153
			c2.88-2.184,2.592-6.833,0.207-9.168c-2.88-2.819-6.978,1.126-8.337,3.555c-1.486,2.653-1.968,7.35,1.034,9.107
			c3.434,2.013,7.146-2.388,10.093-3.234c-1.055-0.804-2.11-1.607-3.165-2.411c-0.021,0.216-0.041,0.432-0.061,0.647
			c0.833-0.833,1.667-1.667,2.5-2.5c-4.103,0.086-7.066,0.456-10.538,2.746c-1.817,1.198-4.264,3.402-4.264,5.796
			c0,5.323,8.398,4.266,11.406,2.704c2.54-1.319,8.219-7.452,2.554-9.011c-3.05-0.839-6.912,2.009-9.76,2.811
			c-3.864,1.089-7.697,2.456-11.466,3.835c-1.136,0.416-1.724,1.214-1.835,2.411c-0.01,0.108-0.02,0.216-0.03,0.324
			c-0.167,1.793,2.29,3.25,3.762,2.159c0.937-0.695,3.845-0.695,5.091-1.18c1.623-0.632,2.535-0.961,3.265-2.618
			C398.841,388.837,394.534,386.291,393.236,389.236L393.236,389.236z"/>
	</g>
</g>
<g>
	<g>
		<path fill="#1D1D1B" d="M332.911,416.82c0.108,0,0.217,0,0.326,0c-0.589-1.423-1.179-2.845-1.768-4.268
			c-1.923,1.92-0.612,4.734,0.007,6.987c0.546,1.985,0.317,4.787,1.674,6.609c6.699,9.006,16.206,13.539,27.416,14.096
			c8.448,0.422,20.526-3.65,25.479-10.881c6.419-9.374,6.286-21.021,6.303-31.961c0.002-1.363-1.139-2.5-2.5-2.5
			c-0.108,0-0.217,0-0.326,0c-3.224,0-3.224,5,0,5c0.108,0,0.217,0,0.326,0c3.224,0,3.224-5,0-5c-0.108,0-0.217,0-0.326,0
			c-3.224,0-3.224,5,0,5c0.108,0,0.217,0,0.326,0c-0.833-0.833-1.667-1.667-2.5-2.5c-0.006,4.021-0.45,7.951-0.639,11.953
			c-0.212,4.482-0.274,8.157-2.255,12.348c-3.736,7.901-10.097,11.198-18.447,13.057c-7.667,1.707-19.829-1.057-24.905-7.23
			c-1.446-1.758-3.96-3.238-4.064-5.726c-0.036-0.872-0.185-2.107-0.415-2.943c-0.146-0.531-0.698-3.692-1.619-2.772
			c1.544-1.542,0.412-4.268-1.768-4.268c-0.108,0-0.217,0-0.326,0C329.687,411.82,329.687,416.82,332.911,416.82L332.911,416.82z"/>
	</g>
</g>
<g>
	<g>
		<path fill="#1D1D1B" d="M392.125,397.179c-0.108,0-0.217,0-0.325,0c-1.654,0-2.804,1.593-2.411,3.165
			c0.172,0.688,0.561,1.297,1.189,1.656c-0.988-0.564-0.277,1.927-0.118,2.994c0.338,2.255,0.713,5.521,2.68,6.93
			c-0.413-0.72-0.826-1.439-1.238-2.159c0.076,0.834,0.145,1.587,0.773,2.215c0.417,0.418,0.917,2.619,1.521,3.927
			c1.085,2.354,3.219,4.28,4.555,6.507c1.144,1.906,2.518,3.584,3.883,5.336c1.338,1.713,3.532,2.373,5.051,3.869
			c1.471,1.449,3.324,2.553,5.195,3.369c3.981,1.736,10.036,2.26,14.352,1.896c8.409-0.707,17.025-3.408,23.596-8.844
			c4.159-3.441,6.64-6.068,8.85-11.158c0.973-2.24,2.849-5.229,2.489-7.742c-0.108-0.754-0.992-1.639-1.746-1.746
			c-0.095-0.014-0.19-0.027-0.285-0.041c-3.152-0.449-4.511,4.368-1.329,4.822c0.095,0.013,0.19,0.026,0.285,0.04
			c-0.582-0.582-1.164-1.164-1.746-1.746c-0.057-0.396-2.639,5.395-2.723,5.587c-1.71,3.941-4.466,6.281-7.801,8.792
			c-5.915,4.453-13.545,6.527-20.862,7.143c-7.455,0.627-14.58-2.74-19.792-7.779c-2.673-2.583-3.82-6.416-6.408-9.07
			c-2.032-2.084-1.722-5.422-4.057-7.09c0.413,0.72,0.826,1.439,1.238,2.159c-0.122-1.337-0.465-2.023-1.563-2.81
			c0.413,0.72,0.826,1.439,1.238,2.158c-0.104-1.151-0.461-2.194-0.781-3.305c-0.506-1.764-0.282-3.538-0.651-5.29
			c-0.177-0.842-0.331-1.767-0.968-2.404c-0.993-0.993-0.407-1.145-0.007,0.452c-0.804,1.056-1.607,2.11-2.411,3.165
			c0.108,0,0.217,0,0.325,0C395.349,402.179,395.349,397.179,392.125,397.179L392.125,397.179z"/>
	</g>
</g>
<g>
	<g>
		<path fill="#1D1D1B" d="M214.088,314.237c2.825-5.626,7.323-9.576,11.841-13.821c5.239-4.924,10.415-9.916,15.641-14.853
			c10.332-9.759,20.956-19.194,32.472-27.544c21.562-15.635,45.992-28.97,72.896-31.61c3.178-0.312,3.209-5.315,0-5
			c-28.008,2.749-52.837,16.214-75.42,32.293c-11.926,8.491-22.837,18.308-33.484,28.326c-5.236,4.927-10.411,9.918-15.641,14.853
			c-4.817,4.545-9.609,8.832-12.623,14.833C208.328,314.586,212.641,317.119,214.088,314.237L214.088,314.237z"/>
	</g>
</g>
<g>
	<g>
		<path fill="#1D1D1B" d="M248.32,270.292c-0.108,0-0.217,0-0.325,0c0.833,0.833,1.667,1.667,2.5,2.5
			c0-6.132,0.339-12.121,2.346-17.992c2.515-7.357,3.385-15.128,6.14-22.498c2.726-7.29,6.326-14.269,8.557-21.715
			c1.212-4.048,3.81-7.823,6.042-11.364c2.492-3.953,4.632-8.192,7.905-11.578c2.578-2.667,6.562-6.241,10.433-6.705
			c3.691-0.442,6.922,0.495,10.504,1.141c6.976,1.259,14.252,6.88,18.962,11.914c2.479,2.649,5.818,4.463,8.139,7.229
			c2.187,2.606,4.612,5.035,6.828,7.615c2.19,2.551,4.02,4.871,6.507,7.158c2.482,2.283,4.95,4.07,6.767,6.977
			c1.301,2.082,4.659,1.277,4.659-1.262c0-0.325,0-0.651,0-0.976c0-3.224-5-3.224-5,0c0,0.325,0,0.651,0,0.976
			c1.553-0.42,3.106-0.841,4.659-1.262c-3.842-6.147-10.348-9.741-14.453-15.805c-2.038-3.011-5.078-5.344-7.412-8.126
			c-1.278-1.524-3.389-2.56-4.88-3.904c-1.95-1.759-3.641-3.771-5.632-5.48c-5.335-4.581-12.216-8.865-19.221-10.129
			c-1.675-0.302-3.837-1.604-5.545-1.391c-1.649,0.206-3.219,0.325-4.88,0.325c-3.749,0-7.045,2.551-9.871,4.685
			c-7.041,5.316-11.13,13.097-15.534,20.573c-4.531,7.694-7.073,16.727-10.444,24.983c-1.754,4.297-3.39,8.607-4.627,13.085
			c-1.173,4.243-1.752,8.646-2.969,12.852c-2.036,7.032-2.977,13.393-2.977,20.673c0,1.363,1.137,2.5,2.5,2.5
			c0.108,0,0.217,0,0.325,0C251.544,275.292,251.544,270.292,248.32,270.292L248.32,270.292z"/>
	</g>
</g>
<g>
	<g>
		<path fill="#1D1D1B" d="M457.376,233.762c24.208,6.208,46.738,17.27,66.885,31.99c19.433,14.199,40.175,32.042,48.872,55.151
			c1.125,2.987,5.96,1.694,4.822-1.33c-8.695-23.1-28.018-40.46-47.15-55.108c-21.482-16.446-45.845-28.791-72.1-35.525
			C455.58,228.139,454.254,232.961,457.376,233.762L457.376,233.762z"/>
	</g>
</g>
<g>
	<g>
		<path fill="#1D1D1B" d="M474.438,235.275c4.347,0,10.048-3.48,14.601-5.547c7.34-3.333,14.519-6.306,22.177-8.858
			c7.208-2.402,13.981-5.044,21.474-6.507c7.64-1.492,14.153-4.066,22.096-2.399c17.245,3.619,14.305,28.603,11.773,41.294
			c-2.834,14.211-6.479,28.567-8.078,42.96c1.667,0,3.333,0,5,0c0.015-0.333-0.016-0.663-0.089-0.99
			c-0.521-1.891-0.443,1.659,0-0.298c0.71-3.14-4.11-4.474-4.822-1.329c-0.135,0.596-0.378,1.252-0.378,1.87
			c0,0.159,0.289,2.196,0.289,0.747c0,3.297,4.652,3.127,5,0c1.789-16.107,6.597-31.861,9.346-47.813
			c1.18-6.852,1.171-15.92-0.239-22.72c-1.438-6.932-5.439-14.161-12.134-17.031c-6.362-2.727-13.201-3.035-19.907-1.421
			c-7.243,1.742-14.581,3.306-21.712,5.448c-7.564,2.273-15.662,5.104-22.912,8.238c-4.382,1.895-8.62,4.14-12.974,6.105
			c-2.127,0.959-4.894,2.788-7.209,2.924c-0.3,0.018-2.066,0.326-1.301,0.326C471.214,230.275,471.214,235.275,474.438,235.275
			L474.438,235.275z"/>
	</g>
</g>
<path fill="#1D1D1B" d="M470.534,230.172c-5.557-0.595-10.693-3.029-15.934-4.807c-6.084-2.064-12.458-3.369-18.759-4.559
	c-10.543-1.99-21.284-3.191-31.952-4.288c-20.362-2.094-42.026-2.802-61.232,5.313c-3.854,1.628-0.533,7.231,3.284,5.619
	c18.653-7.881,40.332-6.237,59.993-4.215c11.061,1.137,22.118,2.59,33.019,4.792c10.68,2.156,20.788,7.496,31.582,8.652
	C474.704,237.125,474.661,230.614,470.534,230.172z"/>
<g>
	<g>
		<path fill="#1D1D1B" d="M183.59,330.897c-0.095-0.013-0.189-0.026-0.285-0.04c0.582,0.582,1.164,1.164,1.746,1.746
			c-0.013-0.096-0.027-0.19-0.041-0.286c-0.582,1.025-1.164,2.051-1.746,3.076c5.976-1.991,10.63-6.152,15.726-9.743
			c3.559-2.508,6.868-5.121,10.574-7.427c3.737-2.325,6.295-5.417,8.705-9.031c1.794-2.691-2.539-5.192-4.317-2.523
			c-4.312,6.468-11.408,10.001-17.485,14.664c-4.745,3.641-9.7,7.629-14.531,9.238c-1.419,0.474-1.947,1.668-1.746,3.076
			c0.014,0.095,0.027,0.189,0.041,0.285c0.107,0.754,0.992,1.638,1.746,1.746c0.095,0.014,0.19,0.027,0.285,0.041
			C185.413,336.17,186.771,331.353,183.59,330.897L183.59,330.897z"/>
	</g>
</g>
<g>
	<g>
		<path fill="#1D1D1B" d="M182.6,335.482c-0.902,0,2.115,1.06,2.642,1.286c1.421,0.608,2.892,0.964,4.395,1.305
			c4.193,0.948,8.205,2.994,12.394,4.178c7.472,2.113,15.101,1.618,22.865,1.04c-0.589-1.423-1.179-2.845-1.768-4.268
			c-2.721,3.068-5.98,5.474-9.58,7.417c-3.261,1.761-6.04,4.362-9.301,6.166c-3.471,1.919-7.434,2.826-11.028,4.495
			c-3.607,1.676-7.294,2.337-11.27,2.337c-2.227,0-3.249,2.701-1.768,4.268c2.074,2.195,4.907,3.757,7.313,5.597
			c3.975,3.041,8.32,5.988,12.826,8.17c3.58,1.733,7.583,3.262,11.561,3.704c4.14,0.46,8.252-0.586,12.363-0.146
			c-0.804-1.055-1.607-2.109-2.411-3.165c-0.667,2.319-4.012,4.871-5.58,6.544c-2.774,2.959-5.43,5.755-9.267,7.287
			c-2.966,1.185-6.025,2.351-9.124,3.107c-2.169,0.529-7.698,1.438-9.772,0.438c-2.891-1.392-5.428,2.919-2.523,4.318
			c3.635,1.75,7.455,0.852,11.368,0.435c4.434-0.473,8.743-2.424,12.845-4.063c4.161-1.662,6.928-4.869,10.009-7.988
			c2.397-2.428,5.893-5.367,6.865-8.749c0.486-1.692-0.837-2.996-2.411-3.165c-3.08-0.33-6.187,0.326-9.272,0.326
			c-3.97,0-7.601-1.375-11.211-2.84c-3.994-1.62-7.392-4.202-10.947-6.58c-2.876-1.924-6.703-4.233-9.097-6.767
			c-0.589,1.423-1.178,2.845-1.768,4.268c2.909,0,6.111-0.166,8.961-0.861c1.665-0.407,3.318-1.409,4.832-2.158
			c2.563-1.269,5.411-1.783,7.966-3.033c4.442-2.173,8.255-4.904,12.363-7.627c3.825-2.536,7.5-4.712,10.592-8.2
			c1.328-1.497,0.565-4.441-1.768-4.268c-7.961,0.593-15.553,0.83-23.208-1.334c-3.674-1.039-7.006-2.852-10.721-3.706
			c-2.642-0.607-5.709-2.769-8.366-2.769C179.376,330.482,179.376,335.482,182.6,335.482L182.6,335.482z"/>
	</g>
</g>
<g>
	<g>
		<path fill="#1D1D1B" d="M183.37,398.664c19.796,26.061,42.374,49.702,68.333,69.692c2.555,1.969,5.04-2.379,2.523-4.316
			c-25.226-19.426-47.303-42.575-66.539-67.899C185.764,393.608,181.418,396.094,183.37,398.664L183.37,398.664z"/>
	</g>
</g>
<g>
	<g>
		<path fill="#1D1D1B" d="M338.738,498.65c35.084,1.496,70.186,1.26,105.094-2.891c15.973-1.9,31.822-4.828,47.199-9.605
			c7.208-2.238,14.287-4.992,21.11-8.221c4.167-1.971,8.051-4.273,12.523-5.531c3.35-0.941,6.371-1.76,9.225-3.818
			c2.589-1.867,0.097-6.207-2.523-4.318c-2.933,2.117-6.14,2.783-9.55,3.742c-3.69,1.037-7.146,3.029-10.53,4.771
			c-7.418,3.82-15.374,6.625-23.328,9.096c-15.517,4.822-31.659,7.463-47.77,9.311c-33.683,3.859-67.618,3.906-101.449,2.465
			C335.513,493.512,335.526,498.514,338.738,498.65L338.738,498.65z"/>
	</g>
</g>
<g>
	<g>
		<path fill="#1D1D1B" d="M575.607,322.379c3.639,1.211,8.516,0.949,12.378,1.149c6.076,0.315,12.156,0.241,18.245,0.241
			c5.062,0,10.667,0.786,15.605-0.402c2.325-0.561,4.917-0.623,7.287-0.994c2.545-0.398,6.003-1.328,8.626-0.971
			c-0.198-1.523-0.397-3.046-0.597-4.569c-4.671,3.517-9.602,6.475-14.103,10.281c-5.533,4.681-11.277,9.088-16.985,13.535
			c-2.491,1.94-4.597,4.338-6.915,6.471c-2.061,1.896-4.653,2.803-6.979,4.296c-2.181,1.4-4.644,2.361-6.688,3.971
			c-2.621,2.063-5.598,3.375-8.194,5.369c-2.019,1.549-1.313,4.372,1.262,4.658c-0.075-0.009,1.661,1.494-0.141-0.082
			c1.223,1.07,2.346,2.216,3.579,3.254c2.84,2.392,7.543,4.018,11.203,4.312c4.739,0.381,9.582-0.019,14.314-0.326
			c2.673-0.174,5.362,0.117,8.038-0.097c1.849-0.147,3.42-1.131,5.302-0.879c-0.589-1.423-1.179-2.845-1.768-4.268
			c-6.807,8.077-13.69,17.588-24.117,21.203c-5.074,1.759-10.15,3.895-15.383,5.104c-6.439,1.487-12.926,3.679-19.573,3.869
			c-3.217,0.092-3.227,5.093,0,5c6.1-0.175,11.493-2.172,17.388-3.377c6.543-1.337,12.563-3.712,18.897-5.774
			c11.499-3.743,18.923-13.706,26.323-22.489c1.506-1.787,0.421-3.974-1.768-4.268c-3.195-0.429-6.636,0.976-9.924,0.976
			c-4.76,0-9.555,0.235-14.314,0.448c-2.739,0.122-5.278-0.755-7.876-1.497c-2.909-0.831-3.874-2.491-5.907-4.292
			c-1.509-1.336-2.783-1.651-4.274-1.816c0.421,1.553,0.841,3.105,1.262,4.658c1.827-1.402,4.145-1.94,5.94-3.415
			c2.498-2.05,4.833-3.599,7.725-5.044c5.353-2.675,9.466-6.164,13.742-10.348c4.555-4.455,10.31-8.29,15.311-12.251
			c5.646-4.472,11.423-8.555,17.146-12.864c1.465-1.103,1.831-4.238-0.597-4.569c-3.745-0.511-7.606,0.285-11.285,0.971
			c-6.066,1.132-11.988,1.218-18.132,1.218c-5.676,0-11.351,0-17.025,0c-4.55,0-11.328,0.243-15.699-1.212
			C573.869,316.536,572.564,321.366,575.607,322.379L575.607,322.379z"/>
	</g>
</g>
<g>
	<g>
		<path fill="#1D1D1B" d="M559.864,400.795c2.11,2.437,6.473,3.73,9.44,4.873c4.865,1.873,9.233,3.555,14.286,4.771
			c8.427,2.029,17.446,2.248,25.882,0.109c-0.941-1.225-1.883-2.449-2.824-3.673c-0.885,1.192-2.814,2.131-3.982,3.007
			c-1.616,1.214-2.836,2.726-4.556,3.904c-3.033,2.08-5.8,4.724-8.67,7.035c-3.448,2.777-6.427,6.251-10.2,8.582
			c-4.403,2.719-8.946,5.367-13.255,8.219c-7.786,5.15-14.415,11.418-21.943,16.838c-3.626,2.609-6.735,5.195-10.759,7.229
			c-3.907,1.975-7.883,3.832-11.63,6.105c-2.752,1.67-0.24,5.996,2.523,4.318c7.238-4.393,15.177-7.113,21.654-12.715
			c7.723-6.678,15.728-12.861,24.244-18.494c7.579-5.014,14.864-9.188,21.63-15.383c3.427-3.137,7.283-5.827,10.858-8.784
			c2.733-2.26,6.29-4.492,8.403-7.338c1.385-1.865-0.887-4.164-2.824-3.673c-7.367,1.869-15.831,1.877-23.223-0.109
			c-3.813-1.023-7.206-1.987-10.91-3.47c-2.974-1.188-8.418-2.357-10.61-4.888C561.285,394.819,557.764,398.372,559.864,400.795
			L559.864,400.795z"/>
	</g>
</g>
<path fill="#1D1D1B" d="M359.049,492.623c-10.693,1.949-22.673-0.219-33.369-1.496c-10.545-1.256-20.469-4.023-30.509-7.367
	c-16.546-5.51-34.556-11.75-45.977-25.67c-2.66-3.242-7.129,1.496-4.5,4.699c12.126,14.781,31.337,21.393,48.882,27.281
	c10.853,3.643,21.534,6.297,32.921,7.656c11.236,1.34,23.196,3.176,34.416,1.131C365.033,498.107,363.137,491.877,359.049,492.623z"
	/>
<g>
	<g>
		<path fill="#1D1D1B" d="M327.247,231.487c1.923,6.266,0.932,12.147,0.887,18.531c-0.053,7.448-2.197,15.342-4.816,22.272
			c-5.494,14.538-13.438,27.869-22.242,40.555c-4.607,6.637-11.794,10.977-18.391,15.376c-6.737,4.492-14.248,9.042-21.737,12.156
			c-4.257,1.771-8.614,3.767-13.252,4.134c-3.617,0.286-7.157,0.392-10.75,0.95c-4.136,0.644-7.796,1.973-12.074,1.918
			c-3.344-0.043-6.854-0.313-10.076,0.761c-3.043,1.015-1.739,5.844,1.329,4.822c3.784-1.261,8.172-0.481,12.105-0.623
			c3.966-0.142,7.745-1.699,11.646-2.305c3.833-0.597,8.33,0.215,12.038-0.977c4.143-1.333,8.829-2.663,12.635-4.808
			c14.395-8.107,30.606-15.395,40.845-28.882c9.584-12.627,16.826-27.066,22.746-41.749c2.811-6.972,4.195-14.54,4.911-21.975
			c0.689-7.161,1.151-14.543-0.981-21.487C331.125,227.085,326.298,228.396,327.247,231.487L327.247,231.487z"/>
	</g>
</g>
<g>
	<g>
		<path fill="#1D1D1B" d="M469.335,237.33c-0.284,3.23-1.901,6.646-2.945,9.716c-1.197,3.521-1.935,7.887-1.935,11.595
			c0,4.362-0.65,8.703-0.65,13.08c0,4.936,1.418,9.149,3.018,13.775c1.294,3.745,2.051,7.616,3.253,11.387
			c1.305,4.093,4.146,8.581,6.415,12.217c5.192,8.321,9.321,16.67,16.352,23.698c13.282,13.279,30.335,23.51,48.116,29.437
			c8.074,2.692,15.899,6.107,23.913,9.11c4.239,1.588,9.16,1.16,13.617,1.264c5.266,0.123,10.384,0.707,15.679,0.615
			c3.221-0.057,3.226-5.057,0-5c-4.778,0.083-9.342-0.085-14.1-0.516c-4.542-0.412-9.525,0.442-13.866-1.185
			c-3.907-1.464-7.98-2.718-11.767-4.466c-3.114-1.438-6.046-3.105-9.412-3.901c-8.846-2.093-16.174-6.368-24.053-10.67
			c-8.654-4.727-16.63-10.263-23.616-17.247c-6.579-6.578-10.972-14.153-15.623-22.129c-2.248-3.854-4.322-7.772-6.37-11.741
			c-1.924-3.728-2.355-8.242-3.717-12.202c-1.688-4.909-2.839-9.066-2.839-14.313c0-3.751,0.65-7.458,0.65-11.212
			c0-7.533,4.239-14.017,4.88-21.311C474.618,234.116,469.616,234.144,469.335,237.33L469.335,237.33z"/>
	</g>
</g>
<g>
	<g>
		<path fill="#1D1D1B" d="M291.574,641.654c0.058-5.959-1.059-11.561-0.599-17.57c0.48-6.295,0.749-12.604,0.957-18.91
			c0.419-12.707,0.412-25.428,0.558-38.139c0.072-6.305,0.197-12.609,0.403-18.91c0.211-6.455,1.357-12.684,2.293-19.059
			c1.804-12.283-0.762-24.334-0.769-36.662c-0.001-3.225-5.001-3.225-5,0c0.006,12.467,2.516,24.652,0.694,37.059
			c-0.824,5.609-1.926,11.109-2.151,16.785c-0.249,6.293-0.359,12.59-0.447,18.885c-0.178,12.713-0.182,25.428-0.525,38.139
			c-0.171,6.316-0.465,12.627-0.88,18.932c-0.201,3.051-0.654,6.117-0.523,9.172c0.147,3.455,1.023,6.797,0.989,10.279
			C286.542,644.881,291.542,644.877,291.574,641.654L291.574,641.654z"/>
	</g>
</g>
<g>
	<g>
		<path fill="#1D1D1B" d="M371.617,613.75c-0.175,13.504-0.225,27.074-3.726,40.213c-3.251,12.201-14.504,23.572-27.497,24.33
			c-3.204,0.188-3.223,5.189,0,5c13.271-0.775,23.538-9.961,29.814-21.148c3.49-6.223,4.349-14.34,5.213-21.307
			c1.111-8.969,1.079-18.066,1.195-27.088C376.659,610.525,371.659,610.529,371.617,613.75L371.617,613.75z"/>
	</g>
</g>
<g>
	<g>
		<path fill="#1D1D1B" d="M409.49,563.844c11.118,0.83,21.927,5.422,28.866,14.41c6.396,8.285,8.031,19.516,12.125,28.959
			c1.28,2.951,5.586,0.402,4.317-2.523c-4.726-10.896-6.594-22.688-14.54-31.949c-7.584-8.842-19.46-13.053-30.769-13.896
			C406.272,558.604,406.295,563.605,409.49,563.844L409.49,563.844z"/>
	</g>
</g>
<g>
	<g>
		<path fill="#1D1D1B" d="M376.405,617.012c0-13.75-1.399-28.084,4.647-40.938c1.755-3.73,4.217-7.748,7.698-10.113
			c1.863-1.266,5.104-3.932,7.59-3.311c2.208,0.551,4.621,0.447,6.887,0.738c1.082,0.141,3.866,0.82,3.445-0.859
			c0.195,0.779,0.769,1.277,1.434,1.656c-0.413-0.719-0.826-1.438-1.238-2.158c0,0.109,0,0.219,0,0.326c0,3.225,5,3.225,5,0
			c0-0.107,0-0.217,0-0.326c0-0.873-0.476-1.723-1.238-2.158c0.858,1.395,1.049,1.586,0.571,0.572
			c-0.222-0.377-0.521-0.676-0.897-0.898c-1.682-0.84-2.624-1.334-4.515-1.275c-3.183,0.1-6.29-0.691-9.435-0.691
			c-7.099,0-13.488,5.914-17.098,11.488c-9.382,14.488-7.852,31.547-7.852,47.947C371.405,620.236,376.405,620.236,376.405,617.012
			L376.405,617.012z"/>
	</g>
</g>
<g>
	<g>
		<path fill="#1D1D1B" d="M285.838,635.883c0,5.354,0.553,11.213,1.919,16.443c1.979,7.576,7.982,13.744,12.412,19.955
			c3.826,5.365,12.148,8.898,18.412,10.15c3.617,0.725,7.435,0.232,11.076,0.686c3.026,0.379,8.942-1.184,11.427,0.473
			c2.692,1.793,5.192-2.539,2.523-4.318c-4.129-2.75-10.492-0.721-15.252-1.316c-3.955-0.494-7.817,0.082-11.699-1.213
			c-4.007-1.336-8.585-3.463-11.575-6.469c-4.659-4.682-9.504-11.58-12.03-17.699c-1.894-4.588-2.214-12.656-2.214-16.691
			C290.838,632.658,285.838,632.658,285.838,635.883L285.838,635.883z"/>
	</g>
</g>
<g>
	<g>
		<path fill="#1D1D1B" d="M625.106,318.916c5.356-4.209,11.413-8.637,17.282-12.058c6.82-3.976,14.121-6.462,21.422-9.271
			c8.193-3.153,18.415-6.077,27.227-6.077c3.664,0,7.52-0.874,11.174-1.264c3.227-0.345,7.021-0.318,10.237-0.074
			c3.528,0.268,6.973-0.47,10.479-0.312c3.728,0.168,7.36,0.963,11.049,1.231c6.905,0.502,13.859,2.316,20.775,2.316
			c7.695,0,15.483,1.531,23.157,1.981c7.027,0.413,14.279-2.288,20.538-5.167c2.927-1.346,0.384-5.655-2.523-4.317
			c-3.817,1.756-8.029,3.453-12.214,4.008c-4.273,0.567-8.231-0.009-12.486-0.24c-7.108-0.385-14.295-0.889-21.359-1.739
			c-14.229-1.712-28.028-3.644-42.395-2.687c-7.267,0.484-14.659,0.405-21.86,1.671c-8.937,1.571-17.583,3.94-26.127,6.955
			c-13.949,4.922-26.271,12.362-37.91,21.509C619.037,317.372,622.602,320.884,625.106,318.916L625.106,318.916z"/>
	</g>
</g>
<g>
	<g>
		<path fill="#1D1D1B" d="M781.257,295.7c3.339-1.026,6.662-1.271,10.116-2.445c5.888-2,9.648-6.136,14.098-10.238
			c5.29-4.876,9.713-10.69,14.027-16.417c4.484-5.951,9.666-11.049,14.268-16.865c4.404-5.567,9.466-10.681,13.924-16.249
			c4.56-5.694,8.96-11.612,14.059-16.836c2.19-2.244,3.958-4.547,5.666-7.183c2.155-3.327,5.015-6.114,7.41-9.267
			c4.391-5.777,8.459-12.549,12.039-18.871c1.591-2.81-2.729-5.329-4.318-2.523c-3.109,5.492-6.934,10.533-10.06,16.023
			c-1.87,3.286-4.642,6.024-7.118,8.849c-2.209,2.519-3.601,5.623-5.855,8.134c-9.313,10.37-17.371,21.96-27.086,31.96
			c-4.441,4.571-9.155,9.514-13.075,14.536c-4.177,5.351-7.968,10.976-12.495,16.052c-4.265,4.781-9.009,10.068-14.752,12.963
			c-4.003,2.018-8.024,2.28-12.177,3.556C776.854,291.823,778.166,296.65,781.257,295.7L781.257,295.7z"/>
	</g>
</g>
<g>
	<g>
		<path fill="#1D1D1B" d="M853.81,328.236c3.496-0.991,5.604-6.028,7.696-8.614c3.828-4.732,7.772-9.416,11.627-14.153
			c6.377-7.838,14.566-14.007,20.725-22.02c3.686-4.794,8.67-8.66,12.545-13.359c3.624-4.394,7.671-8.569,11.399-12.917
			c3.993-4.657,7.166-9.975,11.29-14.496c4.648-5.095,9.754-9.78,14.642-14.641c2.289-2.275-1.247-5.811-3.535-3.535
			c-4.462,4.437-9.012,8.784-13.384,13.31c-4.326,4.478-7.213,9.998-11.407,14.539c-7.478,8.095-14.104,16.957-22.192,24.496
			c-3.493,3.256-6.467,7.146-9.712,10.677c-3.56,3.872-7.522,7.491-11.219,11.243c-3.498,3.55-6.716,7.738-9.585,11.809
			c-1.762,2.499-3.992,4.603-5.913,6.977c-0.941,1.164-2.878,5.459-4.307,5.864C849.383,324.292,850.7,329.117,853.81,328.236
			L853.81,328.236z"/>
	</g>
</g>
<g>
	<g>
		<path fill="#1D1D1B" d="M940.154,231.614c4.564-4.315,7.19-10.379,10.964-15.311c4.763-6.226,9.125-12.763,13.828-19.032
			c3.815-5.083,7.541-10.239,11.388-15.292c4.507-5.919,7.867-12.906,12.948-18.364c2.194-2.356-1.334-5.9-3.535-3.535
			c-4.426,4.753-7.274,10.658-11.128,15.797c-4.046,5.395-7.989,10.87-12.038,16.268c-4.261,5.682-8.49,11.248-12.459,17.147
			c-2.304,3.425-4.708,6.799-7.062,10.183c-1.971,2.831-3.916,6.216-6.441,8.604C934.271,230.298,937.813,233.828,940.154,231.614
			L940.154,231.614z"/>
	</g>
</g>
<g>
	<g>
		<path fill="#1D1D1B" d="M998.064,141.745c-5.124,8.899-10.864,17.41-17.198,25.494c-1.965,2.507,1.548,6.072,3.535,3.535
			c6.602-8.424,12.639-17.228,17.981-26.505C1003.994,141.469,999.673,138.953,998.064,141.745L998.064,141.745z"/>
	</g>
</g>
<g>
	<g>
		<path fill="#1D1D1B" d="M886.211,180.679c15.663-23.155,25.345-49.479,37.771-74.366c6.376-12.77,15.614-24.315,25.608-34.445
			c9.393-9.519,23.682-13.496,36.623-14.234c3.205-0.183,3.223-5.184,0-5c-12.921,0.737-24.993,4.323-35.547,11.958
			c-11.316,8.187-20.018,21.075-27.49,32.691c-8.148,12.667-13.466,27.687-19.756,41.339c-6.291,13.654-13.09,27.062-21.525,39.534
			C880.082,180.834,884.416,183.333,886.211,180.679L886.211,180.679z"/>
	</g>
</g>
<g>
	<g>
		<path fill="#1D1D1B" d="M921.794,107.943c-0.217,0-0.435,0-0.651,0c-3.225,0-3.225,5,0,5c-1.553,0,2.771,3.085,3.294,3.479
			c2.129,1.604,3.646,3.817,5.855,5.29c2.352,1.567,4.324,4.439,6.327,6.442c2.688,2.688,5.29,5.523,8.189,7.985
			c5.584,4.741,9.851,11.123,16.066,15.18c2.481,1.62,4.33,3.897,6.711,5.653c0.735,0.542,8.729,5.512,8.774,5.826
			c0.107,0.754,0.992,1.638,1.746,1.746c0.095,0.014,0.189,0.027,0.284,0.041c3.152,0.45,4.511-4.367,1.33-4.821
			c-0.096-0.014-0.19-0.027-0.285-0.041c0.582,0.582,1.164,1.164,1.746,1.746c-0.35-2.448-5.123-4.459-6.764-5.75
			c-2.79-2.195-5.498-4.204-8.113-6.618c-2.927-2.701-6.27-4.997-9.23-7.703c-3.053-2.791-5.713-5.963-8.73-8.795
			c-2.78-2.61-5.489-5.284-8.189-7.985c-2.014-2.014-4.017-5.009-6.362-6.573c-2.632-1.754-4.849-4.328-7.303-6.357
			c-1.56-1.29-3.166-3.745-5.347-3.745c-3.225,0-3.225,5,0,5c0.217,0,0.435,0,0.651,0
			C925.019,112.943,925.019,107.943,921.794,107.943L921.794,107.943z"/>
	</g>
</g>
<g>
	<g>
		<path fill="#1D1D1B" d="M977.104,163.373c0.722,0.048,1.303,0.489,1.972,0.723c0.435,0.152,1.76,0.472,1.791,0.497
			c1.396,1.132,2.801,3.01,4.696,3.01c3.225,0,3.225-5,0-5c-0.108,0-0.217,0-0.325,0c0.589,0.244,1.179,0.488,1.768,0.732
			c-1.405-1.402-2.863-2.749-4.713-3.516c-0.659-0.273-1.391-0.328-2.042-0.647c-1.025-0.502-2.012-0.724-3.146-0.799
			C973.883,158.159,973.903,163.16,977.104,163.373L977.104,163.373z"/>
	</g>
</g>
<g>
	<g>
		<path fill="#1D1D1B" d="M982.449,56.576c0.283-0.259,3.392,0.172,4.104-0.008c1.909-0.483,4.204,0.077,6.197-0.007
			c3.683-0.155,8.287,1.625,11.775,2.732c5.418,1.72,9.399,7.286,12.741,11.57c2.023,2.593,4.038,4.387,5.06,7.632
			c1.168,3.709,0.565,7.465-0.457,11.112c-1.717,6.12-4.667,11.794-7.295,17.56c-2.457,5.393-4.622,10.88-7.179,16.246
			c-4.674,9.809-12.471,18.58-15.784,28.987c-0.981,3.081,3.847,4.389,4.82,1.329c1.975-6.198,6.252-12.271,9.75-17.707
			c3.78-5.874,6.285-12.378,9.664-18.46c1.62-2.917,2.375-6.398,3.76-9.436c1.609-3.532,3.348-7.008,4.772-10.62
			c2.512-6.366,4.13-12.138,3.089-18.965c-0.943-6.185-6.12-10.631-9.84-15.259c-3.806-4.734-8.54-7.93-14.319-9.582
			c-1.67-0.478-3.355-1.072-5.043-1.423c-2.896-0.603-5.949-0.23-8.784-0.854c-2.624-0.578-8.488-0.284-10.566,1.619
			C976.531,55.223,980.077,58.749,982.449,56.576L982.449,56.576z"/>
	</g>
</g>
<g>
	<g>
		<path fill="#1D1D1B" d="M853.293,322.137c-4.56,3.408-9.9,5.397-13.953,9.501c-1.048,1.061-0.987,3.238,0.506,3.927
			c1.639,0.755,3.105,1.557,4.94,1.275c1.159-0.178,1.731-1.394,1.836-2.411c0.395-3.852-5.734-4.962-7.673-2.285
			c-0.828,1.142-0.158,2.734,0.896,3.421c15.018,9.761,26.783,22.865,36.09,38.09c1.678,2.746,6.004,0.235,4.316-2.523
			c-9.752-15.954-22.151-29.659-37.883-39.885c0.299,1.141,0.598,2.281,0.896,3.421c-1.084,1.35-1.632,1.271-1.644-0.238
			c0.611-0.804,1.224-1.606,1.835-2.41c1.064-0.091,0.702-0.349-1.088-0.772c0.169,1.31,0.338,2.618,0.506,3.927
			c3.73-3.776,8.737-5.576,12.941-8.718C858.366,324.549,855.879,320.205,853.293,322.137L853.293,322.137z"/>
	</g>
</g>
<g>
	<g>
		<path fill="#1D1D1B" d="M815.242,554.107c-9.51-27.352-12.394-56.311-19.442-84.289c-0.788-3.125-5.61-1.799-4.822,1.33
			c7.05,27.977,9.933,56.938,19.442,84.289C811.473,558.463,816.304,557.162,815.242,554.107L815.242,554.107z"/>
	</g>
</g>
<g>
	<g>
		<path fill="#1D1D1B" d="M598.409,578.74c4.856-1.213,10.824-0.344,15.82-0.344c3.699,0,7.501,0,11.277,0
			c10.133,0,19.231-3.789,28.817-6.291c5.019-1.311,10.003-2.061,14.965-3.689c2.738-0.898,5.661-0.941,8.506-1.387
			c2.565-0.404,4.961-1.709,7.375-2.604c4.067-1.51,8.485-1.822,12.476-3.641c5.126-2.336,9.983-5.348,15.016-7.893
			c4.162-2.104,7.472-5.338,11.713-7.373c3.978-1.906,7.559-5.635,11.058-8.283c3.637-2.754,6.773-6,10.024-9.186
			c4.07-3.986,8.24-7.449,11.85-11.916c6.829-8.451,13.802-16.82,21.019-24.949c3.269-3.682,6.604-7.287,9.978-10.873
			c1.682-1.789,3.136-3.637,4.986-5.264c0.687-0.582,1.309-1.227,1.867-1.932c1.114-1.273,0.479-0.389-0.289-0.277
			c0.754-0.109,1.639-0.992,1.746-1.746c0.019-0.127,0.036-0.254,0.055-0.381c0.449-3.152-4.368-4.51-4.822-1.33
			c-0.018,0.127-0.036,0.254-0.054,0.381c0.582-0.582,1.164-1.164,1.746-1.746c-2.062,0.295-4.361,3.977-5.817,5.34
			c-3.422,3.207-6.294,7.158-9.555,10.541c-7.047,7.311-13.853,15.389-20.206,23.311c-3.211,4.002-6.2,8.107-9.815,11.771
			c-3.482,3.527-7.383,6.711-10.936,10.191c-7.235,7.09-16.24,12.158-24.495,17.814c-8.101,5.553-17.681,10.029-27.246,12.102
			c-2.072,0.449-4.077,1.471-6.031,2.266c-2.57,1.045-5.322,1.09-8.033,1.463c-5.729,0.787-11.293,3.162-17.062,4.162
			c-4.461,0.773-8.555,2.525-12.799,3.984c-4.75,1.631-11.06,2.236-16.035,2.434c-4.34,0.172-8.733,0-13.013,0
			c-5.016,0-10.53-0.697-15.415,0.521C593.953,574.699,595.279,579.521,598.409,578.74L598.409,578.74z"/>
	</g>
</g>
<g>
	<g>
		<path fill="#1D1D1B" d="M545.013,576.994c0.874,3.492,6.232,2.332,8.687,3.049c2.603,0.758,6.205,0.521,8.907,0.521
			c3.583,0,7.029,0.742,10.595,0.861c6.109,0.201,12.019-0.861,18.037-0.861c5.5,0,11.027-1.734,16.484-1.734c3.225,0,3.225-5,0-5
			c-9.216,0-18.502,2.602-27.764,2.602c-6.425,0-12.677-0.867-19.088-0.867c-2.638,0-5.193-0.703-7.808-0.813
			c-0.615-0.025-2.333,0.221-2.914-0.094c-1.845-0.994-0.585-0.072-0.314,1.006C549.053,572.539,544.23,573.865,545.013,576.994
			L545.013,576.994z"/>
	</g>
</g>
<g>
	<g>
		<path fill="#1D1D1B" d="M549.056,576.768c0-0.145,0-0.289,0-0.434c0-3.254-4.78-3.184-5,0c-0.23,3.33-0.651,6.648-0.867,9.979
			c-0.239,3.693,0.222,7.359-0.345,11.047c-1.097,7.152-0.17,14.635-0.398,21.848c-0.462,14.598-1.112,28.98-0.434,43.6
			c0.347,7.465-1.111,14.965-0.955,22.467c0.16,7.707,1.689,15.465,0.052,23.139c-1.452,6.809-1.975,13.363-6.731,18.852
			c-4.599,5.305-10.732,10.701-17.463,12.943c-5.925,1.977-12.68,4.111-18.943,4.111c-6.639,0-13.073-1.959-19.543-3.26
			c-3.874-0.779-5.829-3.295-8.171-6.178c-2.217-2.729-4.933-4.902-6.314-8.248c-2.525-6.119-4.669-11.861-5.856-18.438
			c-1.264-7.002-1.807-13.807-2.567-20.863c-0.307-2.84-0.87-5.645-1.144-8.492c-0.349-3.643,0.198-7.199,0.045-10.865
			c-0.278-6.668-1.996-14.018-1.018-20.635c0.408-2.756,0.651-5.309,0.651-8.105c0-2.949-1.117-5.443-0.635-8.445
			c1.064-6.627-1.228-13.986,0.329-20.441c1.233-5.117,1.704-11.986-2.595-15.826c-2.396-2.141-5.945,1.385-3.535,3.535
			c4.523,4.041,0.337,12.09,1.003,17.32c0.82,6.441-1.038,13.127-0.306,19.506c0.285,2.479,0.739,4.881,0.739,7.391
			c0,3.018-0.873,5.947-0.86,8.994c0.031,7.352,1.689,14.627,1.077,22.021c-0.492,5.953,1.259,11.639,1.519,17.568
			c0.307,7.004,1.558,13.586,2.8,20.471c0.983,5.447,2.564,11.125,5.156,16.041c2.894,5.49,6.766,9.76,10.813,14.463
			c3.703,4.305,10.413,4.623,15.601,5.662c5.795,1.16,11.304,2.279,17.302,1.615c5.714-0.633,11.901-2.787,17.343-4.602
			c5.815-1.938,10.344-6.453,14.963-10.291c9.732-8.09,11.134-21.395,12.064-33.164c0.564-7.133-0.939-14.318-0.738-21.475
			c0.23-8.145,0.793-16.135,0.793-24.291c0-6.445-0.356-12.676,0-19.088c0.379-6.826,0.598-13.873,0.625-20.711
			c0.054-13.082,0.642-26.094,1.544-39.154c-1.667,0-3.333,0-5,0c0,0.145,0,0.289,0,0.434
			C544.056,579.992,549.056,579.992,549.056,576.768L549.056,576.768z"/>
	</g>
</g>
<g>
	<g>
		<path fill="#1D1D1B" d="M875.135,369.436c2.681,6.682,5.367,13.325,6.896,20.383c1.739,8.035,1.875,16.833,2.798,25.03
			c1.806,16.049,3.072,32.159,2.735,48.321c-0.341,16.354-3.276,32.35-6.322,48.373c-3.013,15.848-6.761,31.695-13.331,46.488
			c-1.297,2.92,3.01,5.465,4.316,2.523c6.515-14.666,10.385-30.156,13.482-45.855c3.242-16.434,6.17-32.883,6.8-49.65
			s-0.842-33.551-2.681-50.2c-0.839-7.587-1.315-15.326-2.406-22.862c-1.209-8.358-4.341-16.09-7.465-23.881
			C878.771,365.153,873.934,366.441,875.135,369.436L875.135,369.436z"/>
	</g>
</g>
<g>
	<g>
		<path fill="#1D1D1B" d="M808.024,549.014c0.687,8.244,6.812,13.891,8.548,21.488c0.406,1.775,3.188,3.357,4.385,4.639
			c1.831,1.959,3.604,3.717,5.745,5.336c4.556,3.449,10.539,5.701,16.175,6.447c5.16,0.682,10.49,0.764,15.188-1.707
			c4.358-2.289,7.554-7.17,9.859-11.396c2.773-5.086,3.763-10.373,5.851-15.682c0.388-0.986,0.757-1.979,1.145-2.965
			c0.873-2.217-1.016,0.607,0.298-0.705c1.304-1.305,1.102-3.898,1.884-5.494c1.415-2.883-2.897-5.418-4.316-2.523
			c-0.617,1.258-1.24,2.482-1.554,3.85c-0.298,0.725-0.132,0.877,0.498,0.459c-0.534,0.252-1.028,0.924-1.149,1.494
			c-0.702,3.314-2.414,6.541-3.497,9.76c-1.578,4.695-2.782,9.459-6.271,13.213c-1.872,2.014-2.881,3.992-5.271,5.674
			c-2.249,1.582-5.329,1.395-7.928,1.402c-5.556,0.02-10.861-1.742-15.684-4.395c-4.435-2.438-6.908-6.574-10.813-9.563
			c-1.579-1.209-1.318-5.094-2.97-6.809c-2.701-2.803-4.807-8.719-5.124-12.523C812.759,545.824,807.757,545.799,808.024,549.014
			L808.024,549.014z"/>
	</g>
</g>
</svg>
